<?xml version="1.0"?>
<svg xmlns="http://www.w3.org/2000/svg" id="Layer_2" data-name="Layer 2" width="512" height="512" viewBox="0 0 24 24"><path d="M21,2H15a1,1,0,0,0,0,2h3.586l-8.293,8.293a1,1,0,1,0,1.414,1.414L20,5.414V9a1,1,0,0,0,2,0V3A1,1,0,0,0,21,2Z"/><path d="M19,10.588a1,1,0,0,0-1,1v7.163A1.25,1.25,0,0,1,16.751,20H5.249A1.25,1.25,0,0,1,4,18.751V7.249A1.25,1.25,0,0,1,5.249,6h6.222a1,1,0,0,0,0-2H5.249A3.253,3.253,0,0,0,2,7.249v11.5A3.253,3.253,0,0,0,5.249,22h11.5A3.253,3.253,0,0,0,20,18.751V11.588A1,1,0,0,0,19,10.588Z"/></svg>
