<svg id="Layer_2" height="512" viewBox="0 0 54 54" width="512" xmlns="http://www.w3.org/2000/svg" data-name="Layer 2"><path d="m29.49 23.5-1.509-3-1.471 3a1 1 0 0 1 -.741.539l-3.275.5 2.353 2.332a1 1 0 0 1 .283.872l-.533 3.27 2.945-1.513a.994.994 0 0 1 .916 0l2.942 1.516-.533-3.27a1 1 0 0 1 .283-.872l2.353-2.332-3.275-.5a1 1 0 0 1 -.738-.542z"/><path d="m28 13a12.985 12.985 0 0 0 -11.261 19.476 1 1 0 0 1 .1.757l-1.428 5.356 5.356-1.428a1 1 0 0 1 .757.1 13 13 0 1 0 6.476-24.261zm7 12.878-2.074 2.054.47 2.881a1.937 1.937 0 0 1 -2.8 2.036l-2.596-1.338-2.594 1.338a1.939 1.939 0 0 1 -2.8-2.037l.47-2.88-2.076-2.054a1.939 1.939 0 0 1 1.07-3.294l2.886-.443 1.312-2.607a1.94 1.94 0 0 1 3.464 0l1.312 2.607 2.886.443a1.939 1.939 0 0 1 1.07 3.294z"/><path d="m27 4a23 23 0 1 0 23 23 23.026 23.026 0 0 0 -23-23zm1 37a14.977 14.977 0 0 1 -7.108-1.8l-6.634 1.769a1 1 0 0 1 -1.224-1.224l1.766-6.637a14.993 14.993 0 1 1 13.2 7.892z"/></svg>