<svg id="Layer" height="512" viewBox="0 0 24 24" width="512" xmlns="http://www.w3.org/2000/svg"><path id="bell" d="m12 21.75a2.731 2.731 0 0 1 -2.378-1.372.75.75 0 0 1 1.3-.756 1.287 1.287 0 0 0 2.164 0 .75.75 0 1 1 1.3.756 2.731 2.731 0 0 1 -2.386 1.372zm8.675-3.425a.751.751 0 0 0 -.089-.793 9.219 9.219 0 0 1 -1.841-5.032v-3.505a6.745 6.745 0 0 0 -13.49 0v3.505a9.219 9.219 0 0 1 -1.841 5.032.751.751 0 0 0 .586 1.218h16a.75.75 0 0 0 .675-.425zm-13.92-5.825v-3.505a5.245 5.245 0 0 1 10.49 0v3.505a9.908 9.908 0 0 0 1.368 4.75h-13.226a9.908 9.908 0 0 0 1.368-4.75z" fill="rgb(0,0,0)"/></svg>