<svg id="Layer_1" enable-background="new 0 0 512 512" height="512" viewBox="0 0 512 512" width="512" xmlns="http://www.w3.org/2000/svg"><g id="XMLID_278_"><path id="XMLID_492_" d="m418.919 512c-3.069 0-6.16-.307-9.229-.932-8.252-1.694-15.753-5.49-21.913-11.036l-131.777-89.882-131.799 89.882c-6.16 5.547-13.662 9.343-21.823 11.025-9.115 1.841-18.367.966-26.937-2.512-8.684-3.58-15.935-9.502-21.05-17.174-5.069-7.479-7.842-16.424-7.888-25.71v-395.829c0-18.651 7.274-36.189 20.459-49.373 13.185-13.196 30.734-20.459 49.374-20.459h279.329c18.367 0 36.348 7.456 49.351 20.459 13.025 13.014 20.481 31.006 20.481 49.373v395.715c-.091 9.479-2.864 18.39-8.024 25.982-5.001 7.513-12.252 13.435-20.845 16.981-5.707 2.319-11.708 3.49-17.709 3.49zm-302.583-465.445c-6.115 0-12.116 2.489-16.458 6.82-4.342 4.342-6.82 10.332-6.82 16.458v395.715c1.023-1.034 2.205-2.114 3.41-2.944l146.416-99.861c7.956-5.387 18.367-5.365 26.233 0l146.393 99.861c1.205.83 2.341 1.762 3.364 2.796l.068-395.568c0-6.103-2.5-12.105-6.842-16.458-4.342-4.33-10.32-6.82-16.435-6.82h-279.329z" fill="#191919"/></g></svg>