<svg viewBox="0 0 512 512" xmlns="http://www.w3.org/2000/svg"><g id="Layer_2" data-name="Layer 2"><g id="chat_bubble"><path d="m256 0c-141.38 0-256 114.62-256 256s114.62 256 256 256 256-114.62 256-256-114.62-256-256-256zm105.34 335.34c-28.22 22.93-65.63 35.55-105.33 35.55a177.65 177.65 0 0 1 -55.61-8.75 176.23 176.23 0 0 1 -27.4 14.92c-17.43 7.56-33.77 11.38-48.58 11.38a18.39 18.39 0 0 1 -13.11-31.28l.23-.24a1.58 1.58 0 0 0 .22-.23l.21-.24c.78-.85 1.53-1.72 2.29-2.67a97.52 97.52 0 0 0 7.58-10.78 71.71 71.71 0 0 0 9.94-26.44c-16.87-20.48-25.78-44.36-25.78-69.33 0-33.43 15.86-64.72 44.66-88.12 28.22-22.93 65.63-35.55 105.33-35.55s77.11 12.62 105.33 35.55c28.8 23.4 44.66 54.69 44.66 88.12s-15.84 64.71-44.64 88.11z"/><path d="m256 142.75c-72.12 0-130.8 46.87-130.8 104.48 0 21.57 8.22 42.28 23.76 59.89l2.69 3.05-.32 4.05c-1 12.93-5.4 25.95-13.08 38.7a116.05 116.05 0 0 1 -9.11 12.95c-1 1.18-1.89 2.28-2.87 3.35 11.69-.32 24.82-3.6 39-9.77a154.42 154.42 0 0 0 27.93-15.72l4.13-3 4.8 1.73a157.71 157.71 0 0 0 53.87 9.24c72.12 0 130.79-46.87 130.79-104.47s-58.66-104.48-130.79-104.48z"/></g></g></svg>