<?xml version="1.0" encoding="UTF-8"?>
<!-- Generator: Adobe Illustrator 24.3.0, SVG Export Plug-In . SVG Version: 6.00 Build 0)  -->
<svg xmlns="http://www.w3.org/2000/svg" xmlns:xlink="http://www.w3.org/1999/xlink" version="1.1" id="Capa_1" x="0px" y="0px" viewBox="0 0 513.515 513.515" style="enable-background:new 0 0 513.515 513.515;" xml:space="preserve" width="512" height="512">
<g>
	<g id="object_80_">
		<g>
			<path d="M437.776,75.74C338.221-24.652,176.132-25.33,75.74,74.224S-25.33,335.868,74.224,436.26     c0.503,0.507,1.008,1.013,1.516,1.516c99.555,100.392,261.644,101.07,362.036,1.515s101.07-261.644,1.515-362.035     C438.788,76.748,438.283,76.243,437.776,75.74z M256.757,477.414c-121.669,0-220.655-98.986-220.655-220.655     S135.088,36.104,256.757,36.104s220.655,98.986,220.655,220.655S378.426,477.414,256.757,477.414z"/>
		</g>
		<g>
			<path d="M354.637,158.879c-6.901-6.901-18.091-6.901-24.992,0l-72.888,72.887l-72.887-72.887c-6.902-6.902-18.091-6.902-24.993,0     s-6.902,18.091,0,24.993l72.887,72.887l-72.887,72.888c-6.932,6.871-6.981,18.061-0.11,24.993     c6.871,6.932,18.061,6.981,24.993,0.11c0.037-0.037,0.074-0.073,0.11-0.11l72.887-72.887l72.888,72.887     c6.955,6.848,18.144,6.76,24.992-0.195c6.772-6.879,6.772-17.919,0-24.797l-72.887-72.888l72.887-72.887     C361.538,176.971,361.538,165.781,354.637,158.879C354.637,158.879,354.637,158.879,354.637,158.879z"/>
		</g>
	</g>
</g>















</svg>
