<svg xmlns="http://www.w3.org/2000/svg" version="1.1" xmlns:xlink="http://www.w3.org/1999/xlink" width="512" height="512" x="0" y="0" viewBox="0 0 24 24" style="enable-background:new 0 0 512 512" xml:space="preserve" class=""><g><path d="M19.61 16a1.19 1.19 0 0 0-.22-.33L14.76 11a1 1 0 0 0-1.41 1.41l2.92 2.92h-7a3 3 0 0 1-3-3V3a1 1 0 1 0-2 0v9.37a5 5 0 0 0 5 5h7l-2.92 2.92a1 1 0 0 0 0 1.42 1 1 0 0 0 .71.29 1 1 0 0 0 .7-.29l4.63-4.63a1 1 0 0 0 .22-.33 1 1 0 0 0 0-.75z" fill="#9ea0a2" opacity="1" data-original="#000000" class=""></path></g></svg>