<svg xmlns="http://www.w3.org/2000/svg" version="1.1" xmlns:xlink="http://www.w3.org/1999/xlink" width="512" height="512" x="0" y="0" viewBox="0 0 24 24" style="enable-background:new 0 0 512 512" xml:space="preserve" class=""><g><path fill="#c6c8ca" fill-rule="evenodd" d="M19.14 3.613a3 3 0 0 0-4.228.162L3.768 15.748a1 1 0 0 0-.218.37l-1.5 4.57a1 1 0 0 0 1.27 1.26l4.5-1.525a1 1 0 0 0 .419-.273l11.16-12.242a3 3 0 0 0-.185-4.228zm-2.764 1.525a1 1 0 0 1 1.41-.054l.073.067a1 1 0 0 1 .062 1.41L6.935 18.61l-2.361.8.808-2.461zM9 20a1 1 0 1 0 0 2h12a1 1 0 1 0 0-2z" clip-rule="evenodd" opacity="1" data-original="#000000" class=""></path></g></svg>