<svg fill="none" height="24" viewBox="0 0 24 24" width="24" xmlns="http://www.w3.org/2000/svg"><path clip-rule="evenodd" d="m19.1409 3.61277c-1.2141-1.11861-3.1038-1.04606-4.2286.16234l-11.14431 11.97269c-.09861.1059-.17304.232-.21817.3695l-1.5 4.5708c-.11811.3599-.02273.7557.24636 1.0222.2691.2666.66571.3583 1.02449.2368l4.5-1.5236c.16034-.0543.30428-.1484.41832-.2735l11.15971-12.24215c1.1121-1.21987 1.0297-3.10892-.1843-4.22738zm-2.7647 1.525c.375-.4028 1.0049-.42698 1.4096-.05411l.0735.0677c.4046.37282.4321 1.0025.0614 1.40912l-10.98589 12.05142-2.36103.7994.80784-2.4617zm-7.37622 14.86223c-.55228 0-1 .4477-1 1s.44772 1 1 1h12.00002c.5523 0 1-.4477 1-1s-.4477-1-1-1z" fill="rgb(0,0,0)" fill-rule="evenodd"/></svg>