<svg height="512" viewBox="0 0 24 24" width="512" xmlns="http://www.w3.org/2000/svg"><g id="Line"><path d="m20 8a3 3 0 1 0 -3-3 3 3 0 0 0 3 3zm0-4a1 1 0 1 1 -1 1 1 1 0 0 1 1-1zm-19 1a1 1 0 0 1 1-1h12a1 1 0 0 1 0 2h-12a1 1 0 0 1 -1-1zm7 4a3 3 0 0 0 -2.82 2h-3.18a1 1 0 0 0 0 2h3.18a3 3 0 1 0 2.82-4zm0 4a1 1 0 1 1 1-1 1 1 0 0 1 -1 1zm15-1a1 1 0 0 1 -1 1h-8a1 1 0 0 1 0-2h8a1 1 0 0 1 1 1zm-12 7a1 1 0 0 1 -1 1h-8a1 1 0 0 1 0-2h8a1 1 0 0 1 1 1zm11-1h-3.18a3 3 0 1 0 0 2h3.18a1 1 0 0 0 0-2zm-6 2a1 1 0 1 1 1-1 1 1 0 0 1 -1 1z"/></g></svg>