<svg width="556" height="100" viewBox="0 0 556 100" fill="none" xmlns="http://www.w3.org/2000/svg">
<path d="M51.445 98.3425C43.5162 98.3425 36.3711 97.1455 30.0096 94.7514C23.6481 92.2652 18.2547 88.8122 13.8293 84.3923C9.40393 79.9724 5.9927 74.8619 3.59562 69.0608C1.19854 63.1676 0 56.814 0 50C0 43.186 1.19854 36.8784 3.59562 31.0773C5.9927 25.1842 9.40393 20.0276 13.8293 15.6077C18.3469 11.1878 23.7403 7.78085 30.0096 5.38674C36.3711 2.90055 43.5162 1.65745 51.445 1.65745H66.3807V20.9945H51.9982C47.665 20.9945 43.7006 21.7311 40.105 23.2044C36.6016 24.6777 33.5591 26.7495 30.9777 29.4199C28.4884 31.9982 26.5523 35.0368 25.1694 38.5359C23.8786 42.035 23.2332 45.8564 23.2332 50C23.2332 54.1436 23.8786 57.965 25.1694 61.4641C26.5523 64.9632 28.4884 68.0479 30.9777 70.7182C33.5591 73.2965 36.6016 75.3223 40.105 76.7956C43.7006 78.2689 47.665 79.0055 51.9982 79.0055H66.3807V98.3425H51.445Z" fill="black"/>
<path d="M105.098 100C97.0775 100 89.9323 98.3886 83.663 95.1657C77.4859 91.9429 72.6457 87.3389 69.1422 81.3536C65.6388 75.3683 63.8871 68.232 63.8871 59.9447V1.65745H86.8438V61.1878C86.8438 64.779 87.5813 68.0479 89.0565 70.9945C90.5316 73.849 92.6521 76.151 95.4179 77.9006C98.1838 79.558 101.411 80.3867 105.098 80.3867C108.878 80.3867 112.105 79.558 114.779 77.9006C117.545 76.151 119.665 73.849 121.14 70.9945C122.616 68.0479 123.353 64.779 123.353 61.1878V1.65745H146.31V59.9447C146.31 68.232 144.512 75.3683 140.916 81.3536C137.413 87.3389 132.573 91.9429 126.396 95.1657C120.219 98.3886 113.119 100 105.098 100Z" fill="black"/>
<path d="M176.173 98.3425C170.18 98.3425 164.925 97.0074 160.407 94.337C155.889 91.6667 152.386 88.1215 149.897 83.7017C147.408 79.2818 146.163 74.4015 146.163 69.0608V1.65745H169.396V70.7182C169.396 72.9282 170.18 74.8619 171.747 76.5193C173.314 78.1768 175.251 79.0055 177.555 79.0055H203.14V98.3425H176.173Z" fill="black"/>
<path d="M248.831 98.3425C242.931 98.3425 237.722 97.0534 233.204 94.4751C228.779 91.8048 225.276 88.2597 222.694 83.8398C220.205 79.4199 218.96 74.4935 218.96 69.0608V20.9945H192.684V1.65745H268.331V20.9945H242.193V71.1326C242.193 73.2505 242.931 75.0921 244.406 76.6575C245.881 78.2228 247.725 79.0055 249.938 79.0055H257.544V98.3425H248.831Z" fill="black"/>
<path d="M263.649 98.3425V1.65745H307.903C314.449 1.65745 320.396 3.08471 325.743 5.93922C331.183 8.79374 335.47 12.7532 338.604 17.8177C341.831 22.8821 343.445 28.7293 343.445 35.3591C343.445 41.5285 341.969 47.0994 339.019 52.0718C336.069 56.9521 332.197 60.9116 327.403 63.9503L335.147 77.0718C335.608 77.7164 336.115 78.2228 336.668 78.5912C337.314 78.9595 338.143 79.1436 339.157 79.1436H347.732V98.3425H334.179C330.03 98.3425 326.25 97.3757 322.839 95.442C319.428 93.4162 316.754 90.7919 314.818 87.5691L304.446 69.1989C303.801 69.1989 303.109 69.1989 302.371 69.1989C301.726 69.1989 301.035 69.1989 300.297 69.1989H286.883V98.3425H263.649ZM286.883 50H305.276C307.949 50 310.439 49.4475 312.743 48.3425C315.048 47.1455 316.846 45.488 318.137 43.3702C319.52 41.1602 320.211 38.5359 320.211 35.4972C320.211 32.4586 319.52 29.8803 318.137 27.7624C316.754 25.5525 314.91 23.895 312.605 22.79C310.392 21.593 307.949 20.9945 305.276 20.9945H286.883V50Z" fill="black"/>
<path d="M411.152 100C405.528 100 400.365 98.7569 395.663 96.2707C391.053 93.7845 387.366 90.3315 384.6 85.9116C381.926 81.4917 380.589 76.2431 380.589 70.1657V28.0387C380.589 26.5654 380.22 25.2302 379.483 24.0331C378.745 22.8361 377.777 21.8692 376.579 21.1326C375.38 20.3959 374.043 20.0276 372.568 20.0276C371.093 20.0276 369.756 20.3959 368.558 21.1326C367.359 21.8692 366.391 22.8361 365.654 24.0331C365.008 25.2302 364.685 26.5654 364.685 28.0387V98.3425H342.005V29.6961C342.005 23.895 343.296 18.7845 345.878 14.3646C348.551 9.94475 352.193 6.44567 356.803 3.8674C361.505 1.28913 366.76 0 372.568 0C378.469 0 383.724 1.28913 388.334 3.8674C392.943 6.44567 396.585 9.94475 399.259 14.3646C401.932 18.7845 403.269 23.895 403.269 29.6961V71.8232C403.269 73.3886 403.638 74.7698 404.376 75.9669C405.113 77.1639 406.035 78.1308 407.141 78.8674C408.34 79.512 409.631 79.8343 411.014 79.8343C412.489 79.8343 413.826 79.512 415.024 78.8674C416.315 78.1308 417.329 77.1639 418.067 75.9669C418.804 74.7698 419.173 73.3886 419.173 71.8232V29.6961C419.173 23.895 420.51 18.7845 423.183 14.3646C425.857 9.94475 429.499 6.44567 434.109 3.8674C438.811 1.28913 444.02 0 449.736 0C455.636 0 460.845 1.28913 465.363 3.8674C469.973 6.44567 473.614 9.94475 476.288 14.3646C478.962 18.7845 480.299 23.895 480.299 29.6961V98.3425H457.618V27.9005C457.618 26.4273 457.25 25.1381 456.512 24.0331C455.867 22.8361 454.945 21.8692 453.746 21.1326C452.548 20.3959 451.211 20.0276 449.736 20.0276C448.353 20.0276 447.016 20.3959 445.725 21.1326C444.527 21.8692 443.559 22.8361 442.821 24.0331C442.084 25.1381 441.715 26.4273 441.715 27.9005V70.1657C441.715 76.2431 440.332 81.4917 437.566 85.9116C434.8 90.3315 431.112 93.7845 426.503 96.2707C421.893 98.7569 416.776 100 411.152 100Z" fill="black"/>
<path d="M517.555 100C510.087 100 503.449 98.6648 497.64 95.9945C491.832 93.3241 487.314 89.6869 484.088 85.0829C480.861 80.4788 479.247 75.3223 479.247 69.6133C479.247 66.6667 479.754 63.8582 480.769 61.1878C481.875 58.4254 483.396 55.9392 485.332 53.7293C487.268 51.5193 489.481 49.5856 491.97 47.9282C488.651 45.6262 486.024 42.8177 484.088 39.5028C482.244 36.1878 481.322 32.5046 481.322 28.453C481.322 23.2044 482.843 18.4162 485.885 14.0884C489.02 9.76059 493.307 6.35359 498.747 3.8674C504.186 1.28913 510.455 0 517.555 0C524.746 0 531.061 1.28913 536.501 3.8674C541.94 6.35359 546.181 9.76059 549.224 14.0884C552.266 18.4162 553.787 23.2044 553.787 28.453C553.787 32.5046 552.819 36.1878 550.883 39.5028C549.039 42.8177 546.504 45.6262 543.277 47.9282C545.766 49.5856 547.979 51.5193 549.915 53.7293C551.851 55.9392 553.326 58.4254 554.34 61.1878C555.447 63.8582 556 66.6667 556 69.6133C556 75.3223 554.34 80.4788 551.021 85.0829C547.795 89.6869 543.277 93.3241 537.469 95.9945C531.753 98.6648 525.115 100 517.555 100ZM517.555 80.3867C520.689 80.3867 523.409 79.8803 525.714 78.8674C528.111 77.7624 529.955 76.3352 531.245 74.5856C532.628 72.8361 533.32 70.8564 533.32 68.6464C533.32 65.3315 531.845 62.5691 528.894 60.3591C526.036 58.0571 522.256 56.9061 517.555 56.9061C512.945 56.9061 509.165 58.0571 506.214 60.3591C503.356 62.5691 501.927 65.3315 501.927 68.6464C501.927 70.8564 502.573 72.8361 503.863 74.5856C505.154 76.3352 506.998 77.7624 509.395 78.8674C511.792 79.8803 514.512 80.3867 517.555 80.3867ZM517.555 39.2265C521.703 39.2265 525.022 38.2597 527.512 36.326C530.001 34.3002 531.245 31.9061 531.245 29.1436C531.245 27.302 530.646 25.6446 529.448 24.1713C528.341 22.698 526.774 21.5009 524.746 20.5801C522.717 19.6593 520.32 19.1989 517.555 19.1989C514.881 19.1989 512.484 19.6593 510.363 20.5801C508.335 21.5009 506.768 22.698 505.661 24.1713C504.555 25.6446 504.002 27.302 504.002 29.1436C504.002 31.9061 505.246 34.3002 507.736 36.326C510.225 38.2597 513.498 39.2265 517.555 39.2265Z" fill="black"/>
</svg>
