<svg width="150" height="138" viewBox="0 0 150 138" fill="none" xmlns="http://www.w3.org/2000/svg">
<path d="M132.129 104.816C134.556 104.816 136.523 102.852 136.523 100.43V78.5021C136.523 68.2267 130.59 59.3096 121.964 54.9793C123.748 52.5572 124.805 49.5707 124.805 46.3411C124.805 38.2804 118.233 31.7225 110.156 31.7225C102.079 31.7225 95.5078 38.2804 95.5078 46.3411C95.5078 49.5671 96.5625 52.5508 98.3426 54.9714C97.181 55.5535 96.0615 56.2233 94.9907 56.9782C92.8447 54.4887 90.2405 52.404 87.3103 50.8533C89.6807 48.0527 91.1133 44.4378 91.1133 40.4936C91.1133 31.6269 83.8849 24.4131 75 24.4131C66.1151 24.4131 58.8867 31.6269 58.8867 40.4936C58.8867 44.4378 60.3193 48.0527 62.6895 50.8533C59.7598 52.4037 57.1556 54.4881 55.0096 56.9773C53.9388 56.2233 52.8176 55.5555 51.6557 54.9734C53.4369 52.5526 54.4919 49.568 54.4919 46.3411C54.4919 38.2804 47.9206 31.7225 39.8435 31.7225C31.7663 31.7225 25.195 38.2804 25.195 46.3411C25.195 49.5707 26.2518 52.5575 28.0356 54.9793C19.4098 59.3096 13.4766 68.2267 13.4766 78.5021V100.43C13.4766 102.852 15.4441 104.816 17.8711 104.816H48.6328V109.201C48.6328 111.623 50.6004 113.587 53.0273 113.587H96.9727C99.3996 113.587 101.367 111.623 101.367 109.201V104.816H132.129ZM104.297 46.3411C104.297 43.1168 106.925 40.4936 110.156 40.4936C113.387 40.4936 116.016 43.1168 116.016 46.3411C116.016 49.5654 113.387 52.1886 110.156 52.1886C106.925 52.1886 104.297 49.5654 104.297 46.3411ZM110.156 60.9597C119.849 60.9597 127.734 68.8293 127.734 78.5021V96.0445H101.367V74.1165C101.367 70.7297 100.722 67.4905 99.5493 64.5141C102.587 62.2099 106.275 60.9597 110.156 60.9597ZM67.6758 40.4936C67.6758 36.4633 70.9614 33.1843 75 33.1843C79.0386 33.1843 82.3242 36.4633 82.3242 40.4936C82.3242 44.524 79.0386 47.803 75 47.803C70.9614 47.803 67.6758 44.524 67.6758 40.4936ZM33.9844 46.3411C33.9844 43.1168 36.6129 40.4936 39.8438 40.4936C43.0746 40.4936 45.7031 43.1168 45.7031 46.3411C45.7031 49.5654 43.0746 52.1886 39.8438 52.1886C36.6129 52.1886 33.9844 49.5654 33.9844 46.3411ZM22.2656 96.0445V78.5021C22.2656 68.8293 30.1512 60.9597 39.8438 60.9597C43.7145 60.9597 47.4094 62.2131 50.4498 64.5165C49.2773 67.4922 48.6328 70.7306 48.6328 74.1165V96.0445H22.2656ZM92.5781 104.816H57.4219V74.1165C57.4219 64.4437 65.3074 56.5742 75 56.5742C84.6926 56.5742 92.5781 64.4437 92.5781 74.1165V104.816Z" fill="#FF914D"/>
<path d="M145.605 102.623C143.179 102.623 141.211 104.586 141.211 107.008V129.229H118.945C116.518 129.229 114.551 131.192 114.551 133.614C114.551 136.036 116.518 138 118.945 138H145.605C148.032 138 150 136.036 150 133.614V107.008C150 104.586 148.032 102.623 145.605 102.623Z" fill="black"/>
<path d="M31.0547 129.229H8.78906V107.008C8.78906 104.586 6.82148 102.623 4.39453 102.623C1.96758 102.623 0 104.586 0 107.008V133.614C0 136.036 1.96758 138 4.39453 138H31.0547C33.4816 138 35.4492 136.036 35.4492 133.614C35.4492 131.192 33.4816 129.229 31.0547 129.229Z" fill="black"/>
<path d="M4.39453 35.3771C6.82148 35.3771 8.78906 33.4135 8.78906 30.9915V8.77119H31.0547C33.4816 8.77119 35.4492 6.80761 35.4492 4.38559C35.4492 1.96358 33.4816 0 31.0547 0H4.39453C1.96758 0 0 1.96358 0 4.38559V30.9915C0 33.4135 1.96758 35.3771 4.39453 35.3771Z" fill="black"/>
<path d="M145.605 0H118.652C116.225 0 114.258 1.96358 114.258 4.38559C114.258 6.80761 116.225 8.77119 118.652 8.77119H141.211V30.9915C141.211 33.4135 143.179 35.3771 145.605 35.3771C148.032 35.3771 150 33.4135 150 30.9915V4.38559C150 1.96358 148.032 0 145.605 0Z" fill="black"/>
</svg>
