<svg width="150" height="150" viewBox="0 0 150 150" fill="none" xmlns="http://www.w3.org/2000/svg">
<path d="M143.097 127.585V109.357C143.097 105.38 140.18 102.072 136.374 101.457V43.6383L141.743 38.2696C142.155 37.8577 142.386 37.2987 142.386 36.716C142.386 36.1333 142.155 35.5743 141.743 35.1624L136.374 29.7937V25.955H143.232C146.964 25.955 150 22.9189 150 19.1871V6.76787C150 3.03604 146.964 0 143.232 0H6.76816C3.03633 0 0.000292969 3.03604 0.000292969 6.76787V19.1874C0.000292969 22.9192 3.03633 25.9553 6.76816 25.9553H13.626V33.8792C13.626 35.0927 14.6095 36.0765 15.8232 36.0765C17.037 36.0765 18.0205 35.0927 18.0205 33.8792V25.955H23.9326V79.21H18.0205V42.6504C18.0205 41.4369 17.037 40.4531 15.8232 40.4531C14.6095 40.4531 13.626 41.4369 13.626 42.6504V79.2422C9.86221 79.5853 6.90352 82.7575 6.90352 86.6095V127.585C2.94375 128.57 0 132.155 0 136.415V140.9C0 145.918 4.08223 150 9.09961 150H112.339C113.553 150 114.536 149.016 114.536 147.803C114.536 146.589 113.553 145.605 112.339 145.605H9.09961C6.50508 145.605 4.39453 143.495 4.39453 140.9V136.415C4.39453 133.821 6.50508 131.71 9.09961 131.71H140.9C143.495 131.71 145.605 133.821 145.605 136.415V140.9C145.605 143.495 143.495 145.605 140.9 145.605H121.116C119.902 145.605 118.919 146.589 118.919 147.803C118.919 149.016 119.902 150 121.116 150H140.9C145.918 150 150 145.918 150 140.9V136.415C150 132.155 147.056 128.57 143.097 127.585ZM44.8585 92.9171C45.5868 92.8324 46.3222 92.7855 47.0599 92.7855C53.8767 92.7855 60.2042 96.4746 63.5733 102.413C63.8944 102.979 64.4496 103.373 65.0897 103.49C65.7302 103.607 66.3885 103.434 66.8889 103.019C68.6235 101.577 70.8196 100.784 73.0723 100.784C76.5592 100.784 79.7921 102.676 81.5089 105.721C81.8209 106.275 82.3579 106.666 82.9808 106.794C83.6021 106.922 84.2514 106.774 84.7567 106.388C87.1406 104.568 89.9859 103.605 92.9854 103.605C96.2279 103.605 99.2766 104.726 101.714 106.785C101.439 107.593 101.287 108.458 101.287 109.358V127.316H44.8585V92.9171ZM138.702 109.357V127.315H105.682V109.357C105.682 107.367 107.301 105.748 109.291 105.748H135.093C137.083 105.748 138.702 107.367 138.702 109.357ZM109.717 42.2558C109.714 42.2531 109.711 42.2505 109.709 42.2478L108.105 40.6441L117.514 35.7513L128.195 46.4323L123.303 55.8416L122.142 54.6806C122.139 54.6776 122.136 54.6747 122.133 54.6718L109.717 42.2558ZM126.067 60.0498L131.979 48.6806V101.354H126.067V60.0498ZM130.888 42.9097L121.037 33.0589L127.23 26.8652L137.081 36.716L130.888 42.9097ZM25.1273 21.5596L38.5986 5.60361L52.0685 21.5607L25.1273 21.5596ZM116.131 4.39453H143.071L129.6 20.3505L116.131 4.39453ZM6.92871 4.39453H33.8681L20.3971 20.3505L6.92871 4.39453ZM43.3292 4.39453H70.2691L56.7981 20.3505L43.3292 4.39453ZM75 5.60332L88.4698 21.5604H61.5278L75 5.60332ZM79.7303 4.39453H106.671L93.1992 20.3505L79.7303 4.39453ZM111.401 5.60361L124.871 21.5607H97.9289L111.401 5.60361ZM143.232 21.5604H134.33L145.605 8.20488V19.1874C145.605 20.4958 144.541 21.5604 143.232 21.5604ZM4.39482 19.1874V8.20576L15.6677 21.5607H6.76816C5.45947 21.5604 4.39482 20.4958 4.39482 19.1874ZM28.3271 25.955H121.925L116.615 31.2659L103.417 38.1284C102.796 38.4516 102.366 39.051 102.26 39.743C102.153 40.435 102.382 41.1363 102.877 41.6314L104.461 43.2155L45.0929 73.7262C44.0133 74.2808 43.5879 75.6056 44.1428 76.6849C44.5324 77.4428 45.3015 77.8781 46.0989 77.8781C46.437 77.8781 46.7801 77.7999 47.1015 77.6347L107.725 46.4795L117.946 56.7006L110.873 73.1508L110.69 72.5965C110.012 70.5501 108.18 69.2276 106.024 69.2276C103.868 69.2276 102.037 70.5501 101.358 72.5965L100.305 75.774C100.253 75.9293 100.129 76.0529 99.9741 76.1042L96.7969 77.1574C94.7505 77.8356 93.428 79.6673 93.428 81.8232C93.4277 83.9792 94.7502 85.8108 96.7966 86.4891L99.9744 87.5423C100.13 87.5938 100.253 87.7172 100.305 87.873L101.358 91.05C101.586 91.7385 101.948 92.3426 102.405 92.8444L100.966 96.1916C100.486 97.3064 101.001 98.5989 102.116 99.0782C102.399 99.2001 102.693 99.2575 102.983 99.2575C103.834 99.2575 104.645 98.7595 105.003 97.9277L106.523 94.3916C108.459 94.2041 110.065 92.9358 110.69 91.0497L111.743 87.8722C111.795 87.7169 111.918 87.5936 112.073 87.542H112.074L115.251 86.4888C117.298 85.8103 118.62 83.9789 118.62 81.8229C118.62 79.667 117.297 77.8356 115.251 77.1571L114.099 76.7751L121.292 60.0454L121.673 60.4263V101.353H109.291C107.371 101.353 105.607 102.033 104.227 103.164C101.053 100.603 97.1405 99.2098 92.9854 99.2098C89.7911 99.2098 86.7287 100.034 84.01 101.611C81.3618 98.344 77.349 96.3885 73.0723 96.3885C70.6248 96.3885 68.2236 97.0324 66.114 98.2318C61.7578 92.1085 54.656 88.3904 47.0599 88.3904C46.3236 88.3904 45.5892 88.43 44.8585 88.4988V86.6089C44.8585 82.5287 41.5392 79.2094 37.459 79.2094H28.3271V25.955ZM110.692 83.371C109.224 83.857 108.058 85.0233 107.572 86.4899L106.518 89.6672C106.489 89.7557 106.4 90.0243 106.024 90.0243C105.648 90.0243 105.559 89.7557 105.529 89.6672L104.476 86.4902C103.99 85.023 102.824 83.857 101.357 83.3707L98.1794 82.3175C98.0909 82.2882 97.822 82.1991 97.8223 81.8229C97.8223 81.4468 98.0909 81.3577 98.1794 81.3284L101.357 80.2752C102.824 79.7889 103.99 78.6228 104.476 77.1562L105.529 73.979C105.559 73.8905 105.648 73.6219 106.024 73.6219C106.4 73.6219 106.489 73.8905 106.518 73.979L107.572 77.156C108.058 78.6231 109.224 79.7892 110.691 80.2752L113.868 81.3284C113.957 81.3577 114.225 81.4468 114.225 81.8229C114.226 82.1991 113.957 82.2882 113.868 82.3175L110.692 83.371ZM11.2978 86.6095C11.2978 84.9524 12.646 83.6045 14.3027 83.6045H37.459C39.1157 83.6045 40.464 84.9524 40.464 86.6095V127.315H11.2978V86.6095Z" fill="black"/>
<path d="M25.8809 106.837C22.602 106.837 19.9342 109.505 19.9342 112.784C19.9342 116.063 22.6017 118.731 25.8809 118.731C29.1601 118.731 31.8275 116.063 31.8275 112.784C31.8275 109.505 29.1598 106.837 25.8809 106.837ZM25.8809 114.336C25.0251 114.336 24.3287 113.64 24.3287 112.784C24.3287 111.928 25.0251 111.232 25.8809 111.232C26.7366 111.232 27.433 111.928 27.433 112.784C27.433 113.64 26.7366 114.336 25.8809 114.336Z" fill="#4F8FFF"/>
<path d="M25.8812 85.6931C18.9381 85.6931 13.2896 91.3418 13.2896 98.2849C13.2896 100.915 14.0977 103.43 15.5912 105.54C14.1434 107.591 13.2894 110.089 13.2894 112.784C13.2894 119.727 18.9378 125.376 25.8809 125.376C32.8239 125.376 38.4727 119.727 38.4727 112.784C38.4727 110.089 37.6187 107.591 36.1711 105.541C37.6646 103.43 38.4727 100.915 38.4727 98.2849C38.4727 91.3415 32.8242 85.6931 25.8812 85.6931ZM25.8812 90.0876C30.4011 90.0876 34.0781 93.7649 34.0781 98.2849C34.0781 99.7468 33.6949 101.154 32.978 102.39C30.9557 101.004 28.5117 100.192 25.8809 100.192C23.2503 100.192 20.8063 101.004 18.7843 102.39C18.0674 101.154 17.6842 99.7468 17.6842 98.2852C17.6839 93.7647 21.3612 90.0876 25.8812 90.0876ZM25.8809 120.981C21.3609 120.981 17.6839 117.304 17.6839 112.784C17.6839 108.264 21.3612 104.587 25.8809 104.587C30.4011 104.587 34.0781 108.264 34.0781 112.784C34.0781 117.304 30.4011 120.981 25.8809 120.981Z" fill="#4F8FFF"/>
<path d="M110.166 110.135C108.952 110.135 107.968 111.118 107.968 112.332C107.968 113.545 108.952 114.529 110.166 114.529H134.218C135.432 114.529 136.415 113.545 136.415 112.332C136.415 111.118 135.432 110.135 134.218 110.135H110.166Z" fill="black"/>
<path d="M134.218 118.526H110.166C108.952 118.526 107.968 119.51 107.968 120.723C107.968 121.937 108.952 122.92 110.166 122.92H134.218C135.432 122.92 136.415 121.937 136.415 120.723C136.415 119.51 135.432 118.526 134.218 118.526Z" fill="black"/>
<path d="M43.5453 47.1308L46.7226 48.184C46.8781 48.2356 47.0018 48.3592 47.0533 48.5145L48.1066 51.6917C48.7848 53.7381 50.6164 55.0606 52.7724 55.0606C54.9283 55.0606 56.76 53.7381 57.4385 51.6917L58.4914 48.5148C58.5433 48.3592 58.6669 48.2353 58.8225 48.1837L61.9994 47.1305C64.0458 46.4523 65.3683 44.6206 65.3683 42.4647C65.3686 40.3087 64.0461 38.4771 61.9997 37.7989L58.8222 36.7456C58.6669 36.6941 58.5433 36.5704 58.4917 36.4152L57.4385 33.2379C56.7603 31.1915 54.9286 29.8691 52.7724 29.8691C50.6167 29.8691 48.7851 31.1915 48.1066 33.2379L47.0533 36.4149C47.0018 36.5704 46.8781 36.6944 46.7226 36.7459L43.5453 37.7992C41.4989 38.4777 40.1765 40.309 40.1768 42.465C40.1768 44.6212 41.4989 46.4526 43.5453 47.1308ZM44.9281 41.9707L48.1051 40.9175C49.5717 40.4315 50.7377 39.2655 51.2243 37.7983L52.2776 34.621C52.3069 34.5326 52.3959 34.2639 52.7721 34.2639C53.1483 34.2639 53.2376 34.5326 53.2666 34.621L54.3198 37.7986C54.8065 39.2655 55.9728 40.4312 57.4388 40.9172L60.616 41.9704C60.7045 41.9997 60.9735 42.0888 60.9732 42.465C60.9732 42.8412 60.7045 42.9302 60.616 42.9595L57.4388 44.0127C55.9722 44.4988 54.8065 45.6648 54.3198 47.1317L53.2666 50.3089C53.2373 50.3974 53.1483 50.6661 52.7721 50.6661C52.3962 50.6661 52.3069 50.3974 52.2776 50.3089L51.224 47.1314C50.7377 45.6648 49.5717 44.4988 48.1051 44.0127L44.9276 42.9595C44.8394 42.9302 44.5707 42.8412 44.5707 42.465C44.571 42.0891 44.84 42 44.9281 41.9707Z" fill="#FF914D"/>
<path d="M96.8256 86.4023L100.003 87.4556C100.158 87.5071 100.282 87.6308 100.334 87.786L101.387 90.9633C102.065 93.0097 103.897 94.3321 106.053 94.3321C108.209 94.3321 110.04 93.0097 110.719 90.9633L111.772 87.7863C111.824 87.6308 111.947 87.5068 112.103 87.4553L115.28 86.4021C117.326 85.7238 118.649 83.8922 118.649 81.7362C118.649 79.5803 117.326 77.7486 115.28 77.0704L112.102 76.0172C111.947 75.9656 111.824 75.842 111.772 75.6867L110.719 72.5095C110.041 70.4631 108.209 69.1406 106.053 69.1406C103.897 69.1406 102.065 70.4631 101.387 72.5095L100.334 75.6864C100.282 75.842 100.158 75.9659 100.003 76.0175L96.8256 77.0707C94.7792 77.7492 93.4567 79.5806 93.457 81.7365C93.457 83.8928 94.7792 85.7241 96.8256 86.4023ZM98.2084 81.2423L101.385 80.1891C102.852 79.703 104.018 78.537 104.505 77.0698L105.558 73.8926C105.587 73.8041 105.676 73.5355 106.052 73.5355C106.429 73.5355 106.518 73.8041 106.547 73.8926L107.6 77.0701C108.087 78.537 109.253 79.7027 110.719 80.1888L113.896 81.242C113.985 81.2713 114.254 81.3604 114.253 81.7365C114.253 82.1127 113.985 82.2018 113.896 82.2311L110.719 83.2843C109.252 83.7703 108.087 84.9363 107.6 86.4032L106.547 89.5805C106.518 89.6689 106.429 89.9376 106.052 89.9376C105.676 89.9376 105.587 89.6689 105.558 89.5805L104.504 86.4029C104.018 84.9363 102.852 83.7703 101.385 83.2843L98.2078 82.2311C98.1196 82.2018 97.851 82.1127 97.851 81.7365C97.8513 81.3606 98.1202 81.2716 98.2084 81.2423Z" fill="#FF914D"/>
<path d="M118.649 81.7362C118.649 79.6477 117.408 77.8636 115.47 77.1375L115.28 77.0704L112.102 76.0172C111.947 75.9656 111.824 75.842 111.772 75.6867L110.719 72.5095C110.062 70.527 108.322 69.2238 106.254 69.1443L106.053 69.1406C103.897 69.1406 102.065 70.4631 101.387 72.5095L100.334 75.6864C100.282 75.842 100.158 75.9659 100.003 76.0175L96.8256 77.0707L96.6359 77.1378C94.6979 77.8641 93.4567 79.6479 93.457 81.7365L93.4608 81.9377C93.5402 84.0061 94.8431 85.7453 96.8256 86.4023L100.003 87.4556C100.158 87.5071 100.282 87.6308 100.334 87.786L101.387 90.9633C102.044 92.9457 103.783 94.2487 105.852 94.3282L106.053 94.3321C108.141 94.3321 109.925 93.091 110.652 91.153L110.719 90.9633L111.772 87.7863C111.824 87.6308 111.947 87.5068 112.103 87.4553L115.28 86.4021C117.262 85.745 118.565 84.0055 118.645 81.9374L118.649 81.7362ZM114.107 81.7366C114.107 81.5885 114.056 81.5109 114.008 81.4662C113.955 81.4167 113.893 81.395 113.85 81.3809L110.673 80.3278C109.163 79.8272 107.962 78.6271 107.461 77.1163L106.408 73.9386C106.394 73.8965 106.372 73.8337 106.323 73.7806C106.278 73.7327 106.201 73.6819 106.052 73.6819C105.904 73.6819 105.827 73.7327 105.782 73.7806C105.733 73.8337 105.711 73.896 105.697 73.9386L104.644 77.116C104.142 78.627 102.942 79.8275 101.432 80.3281L98.2547 81.3812C98.2122 81.3953 98.1497 81.4172 98.0965 81.4668C98.0544 81.506 98.0102 81.57 97.9998 81.6845L97.9975 81.7366C97.9975 81.8847 98.0483 81.9619 98.0962 82.0066C98.1493 82.0562 98.2116 82.0778 98.2541 82.0919L101.432 83.1453C102.942 83.646 104.142 84.8464 104.643 86.3568L105.697 89.5343C105.711 89.5767 105.733 89.6391 105.782 89.6922C105.827 89.7402 105.904 89.7912 106.052 89.7912L106.052 89.9376L105.985 89.9345C105.666 89.9047 105.585 89.6634 105.558 89.5805L104.504 86.4029C104.033 84.9822 102.924 83.8435 101.522 83.3319L101.385 83.2843L98.2078 82.2311C98.1251 82.2036 97.884 82.1235 97.8541 81.8038L97.851 81.7365C97.8513 81.3606 98.1202 81.2716 98.2084 81.2423L101.385 80.1891C102.806 79.7182 103.945 78.6092 104.457 77.2064L104.505 77.0698L105.558 73.8926C105.587 73.8041 105.676 73.5355 106.052 73.5355L106.12 73.5386C106.439 73.5684 106.52 73.8095 106.547 73.8926L107.6 77.0701C108.087 78.537 109.253 79.7027 110.719 80.1888L113.896 81.242C113.985 81.2713 114.254 81.3604 114.253 81.7365L114.25 81.8038C114.221 82.1236 113.979 82.2036 113.896 82.2311L110.719 83.2843L110.583 83.3319C109.18 83.8435 108.072 84.9822 107.6 86.4032L106.547 89.5805C106.518 89.6689 106.429 89.9376 106.052 89.9376L106.052 89.7912C106.201 89.7912 106.278 89.7402 106.322 89.6922C106.372 89.6391 106.394 89.5768 106.408 89.5343L107.461 86.3571L107.51 86.2164C108.038 84.772 109.21 83.6303 110.673 83.1453L113.85 82.0919C113.893 82.0778 113.955 82.0562 114.008 82.0066C114.056 81.9619 114.107 81.8848 114.107 81.7366ZM118.795 81.7363C118.795 83.9553 117.432 85.843 115.326 86.5411L112.149 87.5942C112.051 87.6265 111.971 87.699 111.927 87.7916L111.911 87.8325L110.858 91.0094C110.159 93.1157 108.272 94.4787 106.053 94.4787C103.834 94.4787 101.946 93.1157 101.248 91.0094L100.194 87.8323C100.157 87.7209 100.068 87.6315 99.9567 87.5945L96.7795 86.5414C94.6732 85.8433 93.3106 83.9559 93.3105 81.7366C93.3102 79.5174 94.6732 77.6301 96.7795 76.9318L99.9567 75.8783C100.068 75.8414 100.157 75.7521 100.194 75.6403L101.248 72.4634C101.946 70.3571 103.834 68.9941 106.053 68.9941C108.272 68.9942 110.16 70.3571 110.858 72.4634L111.911 75.6406L111.927 75.6812C111.971 75.7734 112.051 75.8457 112.149 75.878L115.326 76.9315C117.432 77.6296 118.795 79.5172 118.795 81.7363Z" fill="#FF914D"/>
</svg>
