<svg width="150" height="150" viewBox="0 0 150 150" fill="none" xmlns="http://www.w3.org/2000/svg">
<path d="M107.48 110C106.153 110 104.88 109.473 103.942 108.536C103.004 107.598 102.477 106.326 102.477 105C102.494 98.8488 100.439 92.871 96.644 88.0287C92.8487 83.1864 87.5338 79.7614 81.5546 78.305C80.5343 78.0552 79.6187 77.4908 78.9374 76.6917C78.2561 75.8926 77.8437 74.8994 77.7587 73.853C77.6738 72.8065 77.9205 71.7599 78.464 70.8615C79.0075 69.9631 79.8201 69.2584 80.7867 68.8475C83.9799 67.5039 86.6096 65.0974 88.2296 62.0363C89.8495 58.9753 90.36 55.4483 89.6743 52.0539C88.9886 48.6595 87.149 45.6067 84.4677 43.4137C81.7864 41.2207 78.4285 40.0226 74.9639 40.0226C71.4993 40.0226 68.1415 41.2207 65.4601 43.4137C62.7788 45.6067 60.9392 48.6595 60.2535 52.0539C59.5678 55.4483 60.0783 58.9753 61.6983 62.0363C63.3182 65.0974 65.9479 67.5039 69.1411 68.8475C70.1077 69.2584 70.9203 69.9631 71.4638 70.8615C72.0073 71.7599 72.2541 72.8065 72.1691 73.853C72.0841 74.8994 71.6718 75.8926 70.9905 76.6917C70.3091 77.4908 69.3935 78.0552 68.3732 78.305C62.394 79.7614 57.0791 83.1864 53.2839 88.0287C49.4887 92.871 47.434 98.8488 47.4507 105C47.4507 106.326 46.9236 107.598 45.9855 108.536C45.0473 109.473 43.775 110 42.4482 110C41.1215 110 39.8491 109.473 38.911 108.536C37.9729 107.598 37.4458 106.326 37.4458 105C37.4309 98.3001 39.2172 91.7192 42.618 85.9456C46.0188 80.172 50.9092 75.4177 56.7776 72.18C53.4234 68.6292 51.183 64.1743 50.3331 59.3653C49.4833 54.5562 50.0612 49.6037 51.9955 45.1193C53.9297 40.6348 57.1357 36.8148 61.2175 34.1309C65.2993 31.4469 70.0781 30.0167 74.9639 30.0167C79.8497 30.0167 84.6286 31.4469 88.7103 34.1309C92.7921 36.8148 95.9981 40.6348 97.9323 45.1193C99.8666 49.6037 100.445 54.5562 99.5947 59.3653C98.7448 64.1743 96.5044 68.6292 93.1502 72.18C99.0187 75.4177 103.909 80.172 107.31 85.9456C110.711 91.7192 112.497 98.3001 112.482 105C112.482 106.326 111.955 107.598 111.017 108.536C110.079 109.473 108.806 110 107.48 110Z" fill="black"/>
<path d="M74.9639 150C64.4343 149.99 54.0246 147.765 44.4118 143.469C34.799 139.174 26.1983 132.905 19.1689 125.069C12.1395 117.233 6.83882 108.006 3.61147 97.9876C0.384115 87.9695 -0.697623 77.3847 0.436586 66.9213C1.5708 56.458 4.89556 46.3504 10.1947 37.2557C15.4938 28.161 22.6487 20.2829 31.1941 14.1336C39.7394 7.98426 49.484 3.70145 59.7941 1.5636C70.1043 -0.574249 80.7492 -0.519269 91.0367 1.72497C92.3335 2.00742 93.465 2.79324 94.1822 3.90955C94.8994 5.02586 95.1436 6.38122 94.861 7.67747C94.5784 8.97371 93.7922 10.1047 92.6754 10.8215C91.5585 11.5384 90.2025 11.7824 88.9056 11.5C74.9878 8.45954 60.456 10.0764 47.5478 16.1016C34.6397 22.1268 24.071 32.2261 17.4694 44.8445C10.8677 57.4628 8.59914 71.9004 11.013 85.934C13.4268 99.9676 20.3892 112.819 30.828 122.509C41.2668 132.199 54.6031 138.191 68.7833 139.561C82.9635 140.932 97.2013 137.605 109.304 130.093C121.407 122.581 130.703 111.301 135.762 97.9897C140.821 84.6783 141.362 70.0738 137.301 56.425C137.109 55.7941 137.043 55.1313 137.108 54.4748C137.172 53.8183 137.366 53.1811 137.679 52.5999C137.991 52.0187 138.415 51.505 138.927 51.0884C139.438 50.6718 140.028 50.3606 140.66 50.1725C141.293 49.9845 141.956 49.9235 142.613 49.993C143.269 50.0624 143.905 50.261 144.484 50.5773C145.063 50.8936 145.574 51.3213 145.987 51.8357C146.4 52.3502 146.708 52.9413 146.891 53.575C150.218 64.77 150.886 76.5867 148.841 88.085C146.795 99.5833 142.094 110.446 135.11 119.809C128.126 129.171 119.052 136.776 108.611 142.017C98.1692 147.258 86.6481 149.992 74.9639 150Z" fill="black"/>
<path d="M122.487 57.5C121.5 57.4997 120.534 57.2074 119.713 56.66C112.584 52.1695 106.624 46.0512 102.323 38.8085C98.0218 31.5658 95.5029 23.4058 94.9736 15C94.9736 13.6739 95.5006 12.4021 96.4387 11.4644C97.3769 10.5268 98.6492 9.99997 99.976 9.99997C103.356 10.0693 106.713 9.43373 109.834 8.13379C112.954 6.83384 115.769 4.89807 118.1 2.44997C118.547 1.71007 119.177 1.09704 119.929 0.669277C120.681 0.241513 121.53 0.0132521 122.395 0.00623458C123.26 -0.000782922 124.112 0.213676 124.871 0.629188C125.63 1.0447 126.269 1.64743 126.729 2.37997C129.059 4.85011 131.881 6.80451 135.014 8.11701C138.146 9.42951 141.519 10.071 144.915 9.99997C146.238 9.99996 147.508 10.524 148.445 11.4574C149.383 12.3907 149.912 13.6574 149.918 14.98C149.419 23.3863 146.922 31.5526 142.634 38.8013C138.345 46.05 132.39 52.1722 125.261 56.66C124.439 57.2074 123.474 57.4997 122.487 57.5ZM105.519 19.5925C107.662 30.307 113.709 39.8447 122.487 46.3575C131.254 39.853 137.28 30.3153 139.387 19.6075C133.158 18.6867 127.299 16.0811 122.444 12.0725C117.593 16.0736 111.741 18.6739 105.519 19.5925Z" fill="#4F8FFF"/>
</svg>
