<svg width="150" height="150" viewBox="0 0 150 150" fill="none" xmlns="http://www.w3.org/2000/svg">
<path d="M100.132 70.1981L94.9807 75.3492L91.9483 72.3163C91.0899 71.4585 89.6989 71.4585 88.8409 72.3163C87.9828 73.1747 87.9828 74.5658 88.8409 75.4239L93.4269 80.0102C94.2858 80.8686 95.6765 80.8677 96.534 80.0102L103.239 73.3054C104.097 72.4473 104.097 71.0559 103.239 70.1981C102.381 69.3403 100.99 69.34 100.132 70.1981Z" fill="#FF914D"/>
<path d="M71.0623 55.128V72.1139H64.1007C62.887 72.1139 61.9035 73.0974 61.9035 74.3112C61.9035 75.525 62.887 76.5085 64.1007 76.5085H79.0179C80.0984 84.7564 87.1669 91.1468 95.7043 91.1468C104.242 91.1468 111.31 84.7564 112.391 76.5085H144.237C147.411 76.5085 149.993 73.9262 149.993 70.7521V59.2431C149.993 51.7754 145.623 44.7021 138.545 41.4471C142.032 38.9243 144.307 34.8247 144.307 30.2012C144.307 22.5501 138.083 16.3255 130.432 16.3255C122.781 16.3255 116.557 22.5501 116.557 30.2012C116.557 34.8367 118.844 38.9454 122.346 41.4665C120.774 42.1933 119.298 43.1309 117.959 44.2562C115.342 38.7904 110.656 34.2894 104.857 31.9553C109.741 28.8954 112.997 23.4689 112.997 17.2932C112.997 7.75773 105.24 0 95.7046 0C86.1697 0 78.4127 7.75773 78.4127 17.2932C78.4127 23.4844 81.6847 28.9232 86.5886 31.979C80.8882 34.3 76.2243 38.7198 73.544 44.2755C72.1835 43.1229 70.6882 42.174 69.0963 41.4427C72.5799 38.9193 74.852 34.8217 74.852 30.2012C74.852 22.5501 68.6278 16.3255 60.9772 16.3255C53.3265 16.3255 47.1023 22.5501 47.1023 30.2012C47.1023 34.8282 49.3807 38.9305 52.8722 41.4527C46.0893 44.5773 41.4163 51.5018 41.4163 59.5006V70.7521C41.4163 73.9262 43.9984 76.5085 47.1723 76.5085H53.8474C55.0612 76.5085 56.0446 75.525 56.0446 74.3112C56.0446 73.0974 55.0612 72.1139 53.8474 72.1139H47.1723C46.4215 72.1139 45.8107 71.503 45.8107 70.7521V59.5006C45.8107 51.2797 52.1228 44.5134 60.1806 44.0962C64.488 43.8721 68.7359 45.4559 71.8873 48.7419C71.3315 50.8487 71.0623 53.0721 71.0623 55.128ZM120.952 30.2009C120.952 24.973 125.205 20.7199 130.433 20.7199C135.66 20.7199 139.913 24.9733 139.913 30.2009C139.913 35.4156 135.681 39.6597 130.472 39.6811C130.442 39.6811 130.412 39.6808 130.382 39.6808C125.178 39.6535 120.952 35.4118 120.952 30.2009ZM129.636 44.0959C138.249 43.6444 145.599 50.5414 145.599 59.2428V70.7518C145.599 71.5027 144.989 72.1136 144.238 72.1136H120.347V54.8332C120.347 52.7475 120.058 50.5915 119.585 48.7346C122.255 45.9326 125.783 44.2954 129.636 44.0959ZM95.7049 86.7522C88.8453 86.7522 83.2647 81.1712 83.2647 74.3112C83.2647 67.4514 88.8453 61.8705 95.7049 61.8705C102.565 61.8705 108.145 67.4514 108.145 74.3112C108.145 81.1712 102.565 86.7522 95.7049 86.7522ZM82.8071 17.2932C82.8071 10.1809 88.593 4.39465 95.7046 4.39465C102.817 4.39465 108.602 10.1809 108.602 17.2932C108.602 24.3929 102.836 30.1707 95.7412 30.1907C95.7304 30.1907 95.7199 30.1898 95.7087 30.1898C95.69 30.1898 95.6709 30.1901 95.6519 30.1901C88.5649 30.1617 82.8071 24.3877 82.8071 17.2932ZM75.4567 55.128C75.4567 43.88 84.4805 34.7333 95.4301 34.5862C106.805 34.4333 115.953 43.7068 115.953 54.8332V72.1136H112.397C111.312 63.8241 104.186 57.4756 95.7046 57.4756C87.1868 57.4756 80.0934 63.854 79.0127 72.1136H75.4564L75.4567 55.128ZM61.015 39.6811C60.9959 39.6811 60.9769 39.6816 60.9581 39.6816C55.7394 39.6714 51.4964 35.4223 51.4964 30.2009C51.4964 24.973 55.7496 20.7199 60.9769 20.7199C66.2042 20.7199 70.4574 24.9733 70.4574 30.2009C70.4577 35.4162 66.225 39.6605 61.015 39.6811Z" fill="black"/>
<path d="M148.947 103.981C145.892 97.6031 139.512 96.4371 133.063 98.9555L99.4568 108.899C99.369 105.56 97.8069 101.552 92.5248 99.4436C71.2864 90.9655 68.4828 89.4024 62.6837 89.3019C62.6532 89.3008 62.6245 89.3002 62.5905 89.3002C45.9387 89.3558 42.5289 89.4894 33.8497 93.3743C22.1155 98.6262 21.0034 102.127 13.6531 104.148L3.57821 106.918C1.47124 107.498 0 109.428 0 111.613V145.131C0 146.731 0.786597 148.23 2.10374 149.139C3.42265 150.049 5.10336 150.25 6.59716 149.683L41.571 136.404C48.9913 133.996 56.5075 133.917 62.1994 136.189L75.8894 141.654C75.9216 141.667 75.9548 141.679 75.9879 141.691C78.9479 142.711 86.687 144.641 94.6538 140.576L115.128 131.52C116.238 131.029 116.739 129.731 116.248 128.621C115.757 127.511 114.46 127.01 113.35 127.5L92.821 136.582C92.7826 136.599 92.7393 136.619 92.7018 136.638C86.2537 139.943 79.9361 138.395 77.4685 137.552L63.8283 132.107C57.0861 129.416 48.6805 129.464 40.1598 132.241C40.1267 132.252 40.0933 132.264 40.0608 132.276L5.03715 145.575C4.84438 145.647 4.69263 145.586 4.59947 145.522C4.50601 145.457 4.39439 145.337 4.39439 145.131V111.613C4.39439 111.4 4.53794 111.212 4.74302 111.156L14.8176 108.386C23.0079 106.134 24.2943 102.465 35.6447 97.3857C43.5168 93.8618 46.4282 93.7493 62.5562 93.6951H62.5633C67.4709 93.7728 69.8506 95.1237 90.8957 103.525C96.5217 105.771 94.7569 110.618 94.7569 111.258C94.7537 111.268 94.7522 111.278 94.749 111.288C94.7428 111.307 94.7349 111.325 94.7294 111.344C94.6005 111.78 93.3498 115.58 89.1426 114.55C82.8496 113.008 67.8556 109.397 67.7047 109.361C66.5247 109.077 65.3382 109.804 65.054 110.983C64.7698 112.163 65.4961 113.35 66.6758 113.634C66.8267 113.67 81.8122 117.279 88.097 118.818C92.9238 120.001 96.6887 117.708 98.4962 113.766C136.1 102.641 134.369 103.162 134.662 103.049C137.476 101.949 142.553 100.855 144.968 105.847C147.422 111.49 141.846 114.793 140.552 115.468C139.499 115.934 131.717 119.376 122.728 123.352C121.619 123.843 121.117 125.141 121.608 126.251C122.099 127.36 123.397 127.862 124.506 127.371C133.697 123.305 141.627 119.798 142.39 119.46C142.429 119.443 142.467 119.425 142.505 119.406C146.513 117.349 152.387 111.801 148.976 104.045C148.967 104.023 148.957 104.002 148.947 103.981Z" fill="black"/>
<path d="M107.812 74.2674C107.812 67.5523 102.369 62.1085 95.6543 62.1085C88.9395 62.1085 83.4961 67.5523 83.4961 74.2674C83.4961 80.9826 88.9395 86.4263 95.6543 86.4263V91.1141C86.3507 91.1141 78.8086 83.5716 78.8086 74.2674C78.8086 64.9633 86.3507 57.4207 95.6543 57.4207C104.958 57.4207 112.5 64.9633 112.5 74.2674C112.5 83.5716 104.958 91.1141 95.6543 91.1141V86.4263C102.369 86.4263 107.812 80.9826 107.812 74.2674Z" fill="#4F8FFF"/>
</svg>
