<svg width="150" height="150" viewBox="0 0 150 150" fill="none" xmlns="http://www.w3.org/2000/svg">
<path d="M129.172 35.2122H98.2304C96.6082 35.2122 95.2933 36.5238 95.2933 38.1419C95.2933 39.76 96.6082 41.0716 98.2304 41.0716H129.172C130.794 41.0716 132.109 39.76 132.109 38.1419C132.109 36.5238 130.794 35.2122 129.172 35.2122Z" fill="#FF914D"/>
<path d="M119.522 46.931H98.2301C96.6079 46.931 95.293 48.2426 95.293 49.8606C95.293 51.4787 96.6079 52.7903 98.2301 52.7903H119.522C121.144 52.7903 122.459 51.4787 122.459 49.8606C122.459 48.2426 121.144 46.931 119.522 46.931Z" fill="#FF914D"/>
<path d="M140.895 23.4935H121.212V16.5381C121.212 7.41885 113.775 0 104.632 0H45.3676C36.2256 0 28.7877 7.41885 28.7877 16.5381V69.8818H9.10501C4.08462 69.8818 0 73.9562 0 78.9639V101.815C0 106.823 4.08462 110.897 9.10501 110.897H28.7877V133.462C28.7877 142.581 36.2253 150 45.3676 150H104.632C113.774 150 121.212 142.581 121.212 133.462V107.585C121.212 105.967 119.897 104.655 118.275 104.655C116.653 104.655 115.338 105.967 115.338 107.585V128.051H34.6619V110.897H57.1554L65.0764 118.799C65.9214 119.641 67.0431 120.088 68.1871 120.088C68.7554 120.088 69.3293 119.978 69.8777 119.752C71.5298 119.069 72.5975 117.475 72.5975 115.692V78.9639C72.5975 73.9562 68.5128 69.8818 63.4924 69.8818H34.6619V16.5381C34.6619 10.6497 39.4643 5.85938 45.3676 5.85938H49.4748L54.8668 14.7513C55.9241 16.495 57.85 17.5781 59.893 17.5781H90.107C92.15 17.5781 94.0759 16.495 95.1332 14.7513L100.525 5.85938H104.632C110.536 5.85938 115.338 10.65 115.338 16.5381V23.4935H86.5073C81.4869 23.4935 77.4022 27.5678 77.4022 32.5755V69.3029C77.4022 71.0865 78.4696 72.6803 80.1217 73.3629C80.6701 73.5894 81.244 73.6995 81.8123 73.6995C82.9566 73.6995 84.0783 73.253 84.9233 72.4102L92.8443 64.5088H115.338V80.8895C115.338 82.5076 116.653 83.8192 118.275 83.8192C119.897 83.8192 121.212 82.5076 121.212 80.8895V64.5088H140.895C145.915 64.5088 150 60.4345 150 55.4268V32.5752C150 27.5678 145.916 23.4935 140.895 23.4935ZM104.632 144.141H45.3676C39.6153 144.141 34.9101 139.591 34.6733 133.91H115.327C115.09 139.591 110.385 144.141 104.632 144.141ZM66.7235 78.9639V112.155L60.449 105.896C59.8983 105.347 59.1511 105.038 58.3722 105.038H9.10501C7.32366 105.038 5.8742 103.592 5.8742 101.815V78.9639C5.8742 77.187 7.32366 75.7412 9.10501 75.7412H63.4927C65.2741 75.7412 66.7235 77.187 66.7235 78.9639ZM90.107 11.7188H59.893L56.34 5.85938H93.6603L90.107 11.7188ZM144.126 55.427C144.126 57.2039 142.676 58.6497 140.895 58.6497H91.6278C90.8489 58.6497 90.1017 58.9585 89.551 59.5078L83.2764 65.7665V32.5755C83.2764 30.7986 84.7259 29.3528 86.5073 29.3528H140.895C142.676 29.3528 144.126 30.7986 144.126 32.5755V55.427Z" fill="black"/>
<path d="M20.8281 87.46H51.7699C53.3921 87.46 54.707 86.1483 54.707 84.5303C54.707 82.9122 53.3921 81.6006 51.7699 81.6006H20.8281C19.206 81.6006 17.891 82.9122 17.891 84.5303C17.891 86.1483 19.206 87.46 20.8281 87.46Z" fill="#4F8FFF"/>
<path d="M51.7696 93.3193H30.4774C28.8552 93.3193 27.5403 94.631 27.5403 96.249C27.5403 97.8671 28.8552 99.1787 30.4774 99.1787H51.7696C53.3918 99.1787 54.7067 97.8671 54.7067 96.249C54.7067 94.631 53.3918 93.3193 51.7696 93.3193Z" fill="#4F8FFF"/>
<path d="M118.34 97.1657C119.962 97.1657 121.277 95.8541 121.277 94.236C121.277 92.618 119.962 91.3063 118.34 91.3063C116.717 91.3063 115.402 92.618 115.402 94.236C115.402 95.8541 116.717 97.1657 118.34 97.1657Z" fill="black"/>
</svg>
