<svg width="150" height="150" viewBox="0 0 150 150" fill="none" xmlns="http://www.w3.org/2000/svg">
<path d="M78.2028 64.2131C77.8743 64.1749 77.5415 64.2024 77.2237 64.2938C76.9058 64.3853 76.6093 64.5389 76.3513 64.7458C76.0933 64.9528 75.8789 65.2088 75.7206 65.4993C75.5622 65.7897 75.4631 66.1086 75.4289 66.4377L75.0291 70.2619C74.9763 70.7276 74.7936 71.1691 74.502 71.5359C74.2103 71.9028 73.8215 72.1802 73.3797 72.3366L56.7362 78.1355C56.2236 78.3138 55.783 78.6541 55.4809 79.1051C55.1788 79.556 55.0317 80.093 55.0618 80.635V102.956C55.0599 103.285 55.123 103.611 55.2473 103.915C55.3717 104.22 55.5549 104.497 55.7865 104.731L69.3313 118.328C69.7604 118.773 70.0096 119.36 70.031 119.978V142.474C70.031 143.136 69.7677 143.772 69.2991 144.241C68.8304 144.71 68.1948 144.973 67.532 144.973C66.8692 144.973 66.2336 144.71 65.7649 144.241C65.2962 143.772 65.033 143.136 65.033 142.474V122.052C65.0349 121.723 64.9718 121.397 64.8475 121.093C64.7231 120.788 64.5398 120.511 64.3082 120.278L49.8389 105.705C49.6053 105.474 49.3284 105.29 49.0239 105.166C48.7195 105.042 48.3934 104.979 48.0645 104.98H42.5417C41.8789 104.98 41.2433 105.244 40.7746 105.713C40.3059 106.181 40.0427 106.817 40.0427 107.48V127.476C40.0405 127.888 39.9368 128.293 39.7406 128.655C39.5444 129.017 39.2619 129.325 38.9181 129.551L16.4268 144.548C15.8759 144.91 15.2043 145.039 14.5584 144.908C13.9125 144.777 13.3446 144.396 12.9782 143.848C12.6165 143.297 12.4871 142.626 12.6181 141.98C12.7492 141.333 13.1301 140.765 13.6779 140.399L33.92 126.876C34.2638 126.65 34.5463 126.342 34.7425 125.98C34.9387 125.618 35.0425 125.214 35.0446 124.802V107.48C35.0446 106.817 34.7813 106.181 34.3126 105.713C33.844 105.244 33.2083 104.98 32.5456 104.98C31.8828 104.98 31.2471 105.244 30.7785 105.713C30.3098 106.181 30.0465 106.817 30.0465 107.48V123.452L10.904 136.225C9.56154 137.115 8.54163 138.415 7.99532 139.931C7.44901 141.446 7.40536 143.098 7.87082 144.64C8.33628 146.183 9.28611 147.534 10.5796 148.495C11.8731 149.455 13.4414 149.973 15.0523 149.972C16.528 149.973 17.971 149.538 19.2007 148.722L41.692 133.725C42.7222 133.041 43.5671 132.112 44.1514 131.022C44.7357 129.931 45.0412 128.713 45.0407 127.476V109.98H47.015L60.0349 123.077V142.474C60.0349 144.462 60.8248 146.37 62.2307 147.776C63.6367 149.182 65.5436 149.972 67.532 149.972C69.5203 149.972 71.4273 149.182 72.8332 147.776C74.2392 146.37 75.0291 144.462 75.0291 142.474V119.978C75.034 117.993 74.2521 116.088 72.8549 114.679L60.0349 101.806V82.2847L75.0291 77.0607C76.3671 76.5975 77.5467 75.7647 78.4312 74.6589C79.3157 73.553 79.869 72.2192 80.0271 70.8118L80.452 66.9876C80.49 66.6571 80.4617 66.3223 80.3687 66.0029C80.2758 65.6835 80.12 65.3859 79.9105 65.1275C79.701 64.869 79.4421 64.6551 79.1488 64.4981C78.8556 64.341 78.534 64.2442 78.2028 64.2131Z" fill="black"/>
<path d="M27.2476 94.9824L30.0465 92.7328V97.4819C30.0465 98.1448 30.3098 98.7806 30.7785 99.2493C31.2471 99.7181 31.8828 99.9814 32.5456 99.9814C33.2083 99.9814 33.844 99.7181 34.3126 99.2493C34.7813 98.7806 35.0446 98.1448 35.0446 97.4819V87.4837C35.0433 87.0126 34.9088 86.5515 34.6568 86.1534C34.4048 85.7554 34.0454 85.4367 33.6201 85.2342C33.2165 85.055 32.7725 84.9861 32.3335 85.0344C31.8946 85.0827 31.4762 85.2465 31.1211 85.5091L24.2738 90.9581C24.0062 91.173 23.6973 91.3306 23.3663 91.4209C23.0352 91.5112 22.6891 91.5323 22.3495 91.483L7.35533 89.2084H6.95549C6.35062 89.0651 5.82088 88.7014 5.4697 88.1884C5.11851 87.6753 4.9711 87.0498 5.05623 86.4339C5.16158 85.7815 5.52099 85.1973 6.05584 84.8092C6.58513 84.4124 7.25014 84.2416 7.90512 84.3343L20.7751 86.284C21.113 86.3368 21.4581 86.3196 21.7891 86.2336C22.1201 86.1477 22.4299 85.9946 22.6994 85.7841L35.5444 75.561C36.1853 75.2898 36.8566 75.0968 37.5436 74.9861H40.0427C40.7054 74.9861 41.3411 74.7227 41.8097 74.254C42.2784 73.7852 42.5417 73.1494 42.5417 72.4865V71.4367C42.5434 70.9489 42.4023 70.4712 42.1359 70.0626C41.8694 69.654 41.4893 69.3323 41.0423 69.1372C38.9375 68.2184 37.2132 66.6027 36.1593 64.5619C35.1054 62.5211 34.7862 60.1795 35.2554 57.931C35.7246 55.6825 36.9536 53.6641 38.7357 52.2153C40.5177 50.7665 42.7442 49.9756 45.0407 49.9756C47.3372 49.9756 49.5637 50.7665 51.3458 52.2153C53.1278 53.6641 54.3568 55.6825 54.826 57.931C55.2952 60.1795 54.976 62.5211 53.9221 64.5619C52.8683 66.6027 51.144 68.2184 49.0392 69.1372C48.5921 69.3323 48.212 69.654 47.9455 70.0626C47.6791 70.4712 47.538 70.9489 47.5397 71.4367V72.4865C47.5397 73.1494 47.803 73.7852 48.2717 74.254C48.7404 74.7227 49.376 74.9861 50.0388 74.9861H51.5882C52.2316 74.9835 52.8492 74.7328 53.3125 74.2862C53.5675 74.032 53.8744 73.8359 54.2122 73.7113L68.7315 68.7122C69.1779 68.5597 69.5721 68.284 69.8684 67.9169C70.1646 67.5497 70.351 67.1062 70.4059 66.6376L72.5301 47.2162C72.6054 46.561 72.9367 45.9621 73.4516 45.5501C73.9665 45.1381 74.6233 44.9464 75.279 45.0166C75.6055 45.0513 75.9357 45.0212 76.2507 44.9281C76.5656 44.8351 76.8591 44.6808 77.1144 44.4742C77.3697 44.2676 77.5818 44.0127 77.7386 43.7241C77.8953 43.4354 77.9936 43.1187 78.0279 42.7921C78.0982 42.1363 77.9065 41.4793 77.4945 40.9643C77.0826 40.4492 76.4839 40.118 75.8288 40.0426C74.849 39.9313 73.8568 40.0145 72.9092 40.2874C71.9616 40.5603 71.0771 41.0175 70.3064 41.6327C69.5357 42.248 68.8939 43.0094 68.4179 43.8731C67.9418 44.7368 67.6407 45.686 67.532 46.6663L65.5578 64.463L58.2356 66.9626C59.5392 64.5074 60.1349 61.7382 59.9562 58.9641C59.7776 56.19 58.8315 53.5201 57.2237 51.2526C55.6159 48.9851 53.4097 47.2091 50.8512 46.123C48.2928 45.037 45.483 44.6835 42.7353 45.1021C39.9877 45.5206 37.4105 46.6948 35.2913 48.4935C33.1722 50.2921 31.5946 52.6445 30.7347 55.288C29.8747 57.9314 29.7663 60.7619 30.4214 63.4635C31.0766 66.165 32.4696 68.6313 34.4448 70.5869L33.2203 71.0618L32.6705 71.3867L20.4253 81.1349L8.62984 79.3603C6.78471 79.1078 4.9117 79.5513 3.37554 80.6043C1.83938 81.6574 0.750057 83.2446 0.319692 85.0568C-0.110673 86.8691 0.148732 88.7767 1.04739 90.4081C1.94605 92.0396 3.41963 93.2782 5.18118 93.8826C5.57396 94.0089 5.97469 94.1091 6.38071 94.1825L21.3749 96.4571C22.4025 96.6332 23.4555 96.593 24.4667 96.3391C25.4779 96.0852 26.4251 95.6231 27.2476 94.9824Z" fill="black"/>
<path d="M147.351 21.771C146.526 21.0468 145.553 20.5126 144.499 20.206C143.446 19.8993 142.338 19.8277 141.253 19.9963C139.461 20.3443 137.851 21.3161 136.707 22.7392C135.563 24.1623 134.961 25.9446 135.006 27.7698V59.9889H128.683C130.175 58.3047 131.272 56.3088 131.894 54.1467C132.517 51.9847 132.649 49.7109 132.282 47.4912C131.765 44.5617 130.389 41.852 128.329 39.7067C126.269 37.5614 123.617 36.0774 120.711 35.4434C118.511 34.9786 116.235 35.0088 114.048 35.5319C111.861 36.055 109.818 37.0578 108.066 38.4679C105.368 40.6578 103.514 43.7171 102.821 47.1227C102.129 50.5284 102.64 54.069 104.268 57.1394L96.9456 54.6398L94.9963 37.1431C94.855 35.2383 94.0131 33.4535 92.6331 32.1332C91.2531 30.813 89.433 30.051 87.5242 29.9944C86.4762 30.0001 85.441 30.2254 84.4854 30.6559C83.5298 31.0865 82.6751 31.7126 81.9764 32.494C81.2589 33.2721 80.7143 34.1934 80.3783 35.1972C80.0423 36.201 79.9227 37.2645 80.0271 38.3179L82.5262 60.8137C82.6843 62.2211 83.2376 63.5548 84.1221 64.6607C85.0066 65.7666 86.1862 66.5993 87.5242 67.0625L102.518 72.2866V91.8079L89.6984 104.681C88.3012 106.09 87.5193 107.995 87.5242 109.98V132.2C87.4789 134.026 88.0816 135.808 89.2253 137.231C90.369 138.654 91.9798 139.626 93.7718 139.974C94.8556 140.157 95.9665 140.1 97.0257 139.806C98.0849 139.512 99.0665 138.989 99.9011 138.274C100.736 137.558 101.403 136.668 101.855 135.666C102.307 134.664 102.534 133.575 102.518 132.475V113.079L115.538 99.9814H117.513V142.199C117.467 144.024 118.07 145.806 119.214 147.229C120.357 148.652 121.968 149.624 123.76 149.972C124.176 150.009 124.594 150.009 125.01 149.972C126.998 149.972 128.905 149.182 130.311 147.776C131.717 146.37 132.507 144.462 132.507 142.474V82.4847C132.507 81.8218 132.243 81.186 131.775 80.7172C131.306 80.2485 130.671 79.9851 130.008 79.9851C129.345 79.9851 128.709 80.2485 128.241 80.7172C127.772 81.186 127.509 81.8218 127.509 82.4847V142.474C127.514 142.841 127.438 143.205 127.287 143.539C127.136 143.874 126.913 144.171 126.634 144.41C126.354 144.649 126.026 144.823 125.672 144.92C125.318 145.017 124.947 145.036 124.585 144.973C123.975 144.824 123.436 144.469 123.058 143.968C122.68 143.467 122.487 142.851 122.511 142.224V97.4819C122.511 96.819 122.247 96.1832 121.779 95.7144C121.31 95.2457 120.674 94.9824 120.012 94.9824H114.489C114.16 94.9804 113.834 95.0435 113.529 95.1679C113.225 95.2923 112.948 95.4756 112.714 95.7072L98.2451 110.28C98.0135 110.513 97.8302 110.79 97.7059 111.095C97.5815 111.399 97.5185 111.725 97.5204 112.054V132.475C97.5257 132.843 97.4501 133.207 97.2988 133.541C97.1476 133.876 96.9244 134.173 96.6453 134.412C96.3661 134.651 96.0378 134.825 95.6837 134.922C95.3296 135.019 94.9584 135.037 94.5965 134.975C93.9871 134.826 93.4478 134.471 93.0699 133.97C92.692 133.469 92.4985 132.853 92.5223 132.225V109.98C92.5204 109.651 92.5834 109.325 92.7078 109.02C92.8322 108.715 93.0154 108.438 93.247 108.205L106.792 94.6074C107.023 94.3739 107.207 94.0969 107.331 93.7923C107.455 93.4878 107.518 93.1617 107.516 92.8327V70.5119C107.52 69.9909 107.36 69.482 107.06 69.0563C106.76 68.6305 106.334 68.3093 105.842 68.1373L89.1986 62.3384C88.7568 62.1821 88.368 61.9046 88.0763 61.5378C87.7847 61.171 87.602 60.7295 87.5492 60.2638L85.0502 37.768C85.0111 37.4231 85.0442 37.0739 85.1475 36.7425C85.2507 36.4111 85.4219 36.1049 85.65 35.8433C85.8841 35.5767 86.1724 35.363 86.4956 35.2165C86.8187 35.07 87.1694 34.9939 87.5242 34.9935C88.1664 35.0545 88.7671 35.3375 89.2232 35.7937C89.6793 36.2499 89.9622 36.8508 90.0233 37.493L92.1224 56.5895C92.1773 57.0581 92.3637 57.5016 92.66 57.8687C92.9563 58.2359 93.3504 58.5116 93.7968 58.6641L108.316 63.6632C108.654 63.7877 108.961 63.9839 109.216 64.2381C109.679 64.6847 110.297 64.9354 110.94 64.9379H112.515C113.177 64.9379 113.813 64.6746 114.282 64.2058C114.75 63.7371 115.014 63.1013 115.014 62.4384V61.3886C115.015 60.9008 114.874 60.4231 114.608 60.0145C114.341 59.6059 113.961 59.2842 113.514 59.089C111.409 58.1702 109.685 56.5546 108.631 54.5138C107.577 52.4729 107.258 50.1314 107.727 47.8829C108.197 45.6343 109.425 43.616 111.208 42.1671C112.99 40.7183 115.216 39.9274 117.513 39.9274C119.809 39.9274 122.036 40.7183 123.818 42.1671C125.6 43.616 126.829 45.6343 127.298 47.8829C127.767 50.1314 127.448 52.4729 126.394 54.5138C125.34 56.5546 123.616 58.1702 121.511 59.089C121.064 59.2842 120.684 59.6059 120.417 60.0145C120.151 60.4231 120.01 60.9008 120.012 61.3886V62.4884C120.012 63.1513 120.275 63.7871 120.744 64.2558C121.212 64.7246 121.848 64.9879 122.511 64.9879H135.006C136.331 64.9879 137.603 64.4612 138.54 63.5237C139.477 62.5862 140.004 61.3147 140.004 59.9889V27.7698C139.979 27.1461 140.169 26.5327 140.542 26.0322C140.915 25.5317 141.448 25.1745 142.053 25.0204C142.42 24.9555 142.796 24.9735 143.155 25.073C143.514 25.1725 143.846 25.3509 144.127 25.5952C144.402 25.8299 144.622 26.1212 144.773 26.4492C144.924 26.7771 145.002 27.1339 145.002 27.4949V59.9889C145.002 62.6405 143.949 65.1836 142.074 67.0586C140.2 68.9336 137.657 69.987 135.006 69.987H130.008C129.345 69.987 128.709 70.2503 128.241 70.7191C127.772 71.1878 127.509 71.8236 127.509 72.4865C127.509 73.1494 127.772 73.7852 128.241 74.254C128.709 74.7227 129.345 74.9861 130.008 74.9861H135.006C138.983 74.9861 142.796 73.406 145.608 70.5935C148.42 67.781 150 63.9664 150 59.9889V27.4949C150.001 26.4056 149.764 25.3293 149.306 24.3408C148.849 23.3523 148.182 22.4753 147.351 21.771Z" fill="black"/>
<path d="M7.55526 29.9944C9.54361 29.9944 11.4505 29.2044 12.8565 27.7981C14.2625 26.3919 15.0523 24.4846 15.0523 22.4958V14.9972H30.0465V20.4462C28.5452 19.9153 26.914 19.8763 25.389 20.3349C23.8641 20.7934 22.5247 21.7257 21.565 22.9966C20.6054 24.2675 20.0752 25.8111 20.0513 27.4036C20.0274 28.996 20.5111 30.5548 21.4323 31.8539C22.3535 33.153 23.6643 34.125 25.1748 34.6291C26.6852 35.1332 28.317 35.1431 29.8335 34.6575C31.35 34.1719 32.6726 33.2159 33.6095 31.9281C34.5464 30.6403 35.0491 29.0876 35.0446 27.4949V2.49954C35.0446 1.83662 34.7813 1.20085 34.3126 0.732097C33.844 0.263343 33.2083 0 32.5456 0H12.5533C11.8905 0 11.2549 0.263343 10.7862 0.732097C10.3176 1.20085 10.0543 1.83662 10.0543 2.49954V15.4471C9.02317 15.0729 7.92252 14.9296 6.82998 15.0272C5.73744 15.1248 4.67962 15.461 3.73116 16.0121C2.78269 16.5632 1.96669 17.3158 1.34071 18.2167C0.714727 19.1176 0.294023 20.145 0.108275 21.2262C-0.0774724 22.3075 -0.0237394 23.4164 0.265684 24.4746C0.555107 25.5328 1.07317 26.5147 1.78332 27.3508C2.49348 28.187 3.37842 28.8571 4.37572 29.3138C5.37303 29.7706 6.4584 30.0029 7.55526 29.9944ZM27.5475 29.9944C27.0532 29.9944 26.5701 29.8478 26.1591 29.5732C25.7481 29.2985 25.4278 28.9082 25.2387 28.4514C25.0496 27.9947 25.0001 27.4921 25.0965 27.0073C25.1929 26.5224 25.4309 26.077 25.7804 25.7275C26.1299 25.3779 26.5752 25.1398 27.06 25.0434C27.5447 24.9469 28.0472 24.9964 28.5038 25.1856C28.9605 25.3748 29.3508 25.6952 29.6254 26.1062C29.9 26.5173 30.0465 27.0005 30.0465 27.4949C30.0465 28.1578 29.7832 28.7936 29.3146 29.2623C28.8459 29.7311 28.2103 29.9944 27.5475 29.9944ZM15.0523 4.99907H30.0465V9.99814H15.0523V4.99907ZM7.55526 19.9963C8.04952 19.9963 8.53268 20.1429 8.94364 20.4175C9.35461 20.6922 9.67491 21.0826 9.86406 21.5393C10.0532 21.996 10.1027 22.4986 10.0063 22.9835C9.90984 23.4683 9.67183 23.9137 9.32234 24.2633C8.97284 24.6128 8.52756 24.8509 8.04279 24.9473C7.55803 25.0438 7.05556 24.9943 6.59892 24.8051C6.14228 24.6159 5.75199 24.2955 5.47739 23.8845C5.20279 23.4734 5.05623 22.9902 5.05623 22.4958C5.05623 21.8329 5.31952 21.1971 5.78817 20.7284C6.25683 20.2596 6.89247 19.9963 7.55526 19.9963Z" fill="#4F8FFF"/>
<path d="M98.1701 27.1949C99.366 27.9778 100.764 28.3947 102.194 28.3947C103.448 28.3865 104.682 28.0726 105.788 27.4803C106.894 26.888 107.839 26.0351 108.541 24.9954L115.238 14.4473L125.784 21.1711C126.187 21.4309 126.655 21.5698 127.134 21.571C127.552 21.5703 127.963 21.4647 128.33 21.2638C128.697 21.0629 129.007 20.7732 129.233 20.4212L134.606 11.9728C134.806 11.6894 134.945 11.3675 135.014 11.0275C135.082 10.6876 135.08 10.337 135.006 9.99814C134.851 9.35313 134.459 8.79051 133.906 8.42343L121.211 0.399926C120.654 0.042883 119.978 -0.0786817 119.332 0.0618842C118.685 0.20245 118.121 0.593675 117.762 1.14979L112.515 9.57322L108.116 16.297C107.598 15.6159 106.964 15.032 106.242 14.5723C104.571 13.6003 102.588 13.3117 100.709 13.7668C98.8302 14.2218 97.1996 15.3854 96.1579 17.0144C95.1161 18.6434 94.7439 20.612 95.1188 22.5091C95.4938 24.4061 96.587 26.0849 98.1701 27.1949ZM120.661 5.94889L129.083 11.3229L126.359 15.5471L117.937 10.1731L120.661 5.94889ZM100.019 19.5464C100.247 19.1908 100.562 18.8988 100.933 18.6978C101.305 18.4967 101.721 18.3931 102.144 18.3966C102.619 18.4006 103.084 18.5299 103.493 18.7715C104.045 19.1338 104.432 19.6999 104.568 20.3462C104.711 20.9895 104.594 21.6633 104.243 22.2209C104.067 22.4983 103.839 22.7384 103.57 22.9274C103.302 23.1165 102.999 23.2509 102.679 23.3228C102.359 23.3948 102.027 23.4029 101.704 23.3468C101.381 23.2907 101.071 23.1714 100.794 22.9957C100.517 22.8201 100.277 22.5916 100.088 22.3233C99.8986 22.0549 99.7643 21.7519 99.6924 21.4316C99.6204 21.1112 99.6123 20.7799 99.6684 20.4564C99.7245 20.133 99.8438 19.8237 100.019 19.5464Z" fill="#4F8FFF"/>
<path d="M50.0388 23.3207C50.4027 24.9876 51.324 26.4805 52.6507 27.553C53.9774 28.6255 55.6301 29.2133 57.3359 29.2196C57.8816 29.2108 58.4253 29.1522 58.9603 29.0446C60.8978 28.6179 62.5873 27.4404 63.6585 25.7702L71.7304 13.1226C72.0873 12.5654 72.2089 11.8895 72.0683 11.2429C71.9278 10.5963 71.5367 10.0318 70.9807 9.6732C70.4237 9.31616 69.7478 9.1946 69.1014 9.33516C68.4549 9.47573 67.8905 9.86695 67.532 10.4231L63.2337 17.1218C62.7238 16.4423 62.0977 15.8584 61.3844 15.3971C59.7103 14.3283 57.6807 13.9675 55.741 14.394C53.8013 14.8204 52.11 15.9993 51.0384 17.6717C50.4976 18.4963 50.1301 19.4224 49.9583 20.3935C49.7864 21.3646 49.8138 22.3605 50.0388 23.3207ZM55.2368 20.3712C55.4137 20.0931 55.6439 19.8528 55.9141 19.664C56.1843 19.4753 56.4892 19.3418 56.8111 19.2714C56.9935 19.2454 57.1786 19.2454 57.3609 19.2714C57.8053 19.275 58.2407 19.397 58.6223 19.6249C59.0038 19.8528 59.3177 20.1783 59.5316 20.568C59.7455 20.9576 59.8516 21.3972 59.839 21.8415C59.8265 22.2859 59.6957 22.7188 59.4601 23.0957C59.2832 23.3738 59.053 23.6142 58.7828 23.8029C58.5126 23.9917 58.2077 24.1251 57.8857 24.1955C57.4045 24.301 56.9028 24.2618 56.4437 24.0829C55.9846 23.9039 55.5887 23.5933 55.3056 23.19C55.0225 22.7867 54.865 22.3086 54.8527 21.816C54.8405 21.3234 54.9741 20.8381 55.2368 20.4212V20.3712Z" fill="#FF914D"/>
<path d="M85.0252 19.9963C85.688 19.9963 86.3236 19.7329 86.7923 19.2642C87.2609 18.7954 87.5242 18.1597 87.5242 17.4967V7.49861C87.5242 6.83569 87.2609 6.19992 86.7923 5.73117C86.3236 5.26241 85.688 4.99907 85.0252 4.99907C84.3624 4.99907 83.7268 5.26241 83.2581 5.73117C82.7895 6.19992 82.5262 6.83569 82.5262 7.49861V17.4967C82.5262 18.1597 82.7895 18.7954 83.2581 19.2642C83.7268 19.7329 84.3624 19.9963 85.0252 19.9963Z" fill="black"/>
<path d="M7.55526 49.9907V57.4893C7.55526 58.1522 7.81855 58.788 8.28721 59.2568C8.75587 59.7255 9.3915 59.9889 10.0543 59.9889C10.7171 59.9889 11.3527 59.7255 11.8214 59.2568C12.29 58.788 12.5533 58.1522 12.5533 57.4893V49.9907C12.5533 49.3278 12.29 48.692 11.8214 48.2233C11.3527 47.7545 10.7171 47.4912 10.0543 47.4912C9.3915 47.4912 8.75587 47.7545 8.28721 48.2233C7.81855 48.692 7.55526 49.3278 7.55526 49.9907Z" fill="black"/>
<path d="M60.0349 42.4921C61.4151 42.4921 62.5339 41.373 62.5339 39.9926C62.5339 38.6121 61.4151 37.493 60.0349 37.493C58.6547 37.493 57.5359 38.6121 57.5359 39.9926C57.5359 41.373 58.6547 42.4921 60.0349 42.4921Z" fill="black"/>
<path d="M47.5397 7.49861C48.9199 7.49861 50.0388 6.37953 50.0388 4.99907C50.0388 3.61862 48.9199 2.49954 47.5397 2.49954C46.1596 2.49954 45.0407 3.61862 45.0407 4.99907C45.0407 6.37953 46.1596 7.49861 47.5397 7.49861Z" fill="black"/>
</svg>
