<svg width="150" height="150" viewBox="0 0 150 150" fill="none" xmlns="http://www.w3.org/2000/svg">
<path d="M119.643 150H97.2455C90.7408 150 84.4857 146.925 80.5134 141.774L58.5179 113.257C54.4134 107.928 55.4048 100.25 60.7268 96.1413C66.0562 92.0375 73.7336 93.0285 77.8434 98.3487L80.6548 101.993V66.3694C80.6548 59.6412 86.1289 54.1671 92.8571 54.1671C99.5854 54.1671 105.06 59.6412 105.06 66.3694V90.5988L131.531 97.2166C136.973 98.577 140.774 103.445 140.774 109.055V128.869C140.774 140.521 131.294 150 119.643 150ZM68.1735 100.153C66.967 100.153 65.7518 100.536 64.725 101.327C62.2607 103.229 61.8012 106.79 63.7039 109.261L85.6979 137.776C88.4396 141.331 92.7562 143.453 97.2455 143.453H119.643C127.684 143.453 134.226 136.911 134.226 128.869V109.055C134.226 106.455 132.465 104.2 129.943 103.569L100.992 96.3312C99.5342 95.9669 98.5119 94.6574 98.5119 93.155V66.3694C98.5119 63.2513 95.9753 60.7147 92.8571 60.7147C89.739 60.7147 87.2024 63.2513 87.2024 66.3694V111.598C87.2024 112.999 86.311 114.245 84.9848 114.697C83.6589 115.149 82.192 114.707 81.3363 113.598L72.6607 102.35C71.5473 100.909 69.869 100.153 68.1735 100.153Z" fill="black"/>
<path d="M61.9048 42.2624C55.1765 42.2624 49.7024 36.7883 49.7024 30.0601C49.7024 28.2521 51.1682 26.7863 52.9762 26.7863C54.7842 26.7863 56.25 28.2521 56.25 30.0601C56.25 33.1782 58.7866 35.7148 61.9048 35.7148C65.0229 35.7148 67.5595 33.1782 67.5595 30.0601V6.54828H61.9048C60.0967 6.54828 58.631 5.08252 58.631 3.27449C58.631 1.46646 60.0967 0.000694768 61.9048 0.000694768H70.8333C72.6414 0.000694768 74.1071 1.46646 74.1071 3.27449V30.0601C74.1071 36.7886 68.633 42.2624 61.9048 42.2624Z" fill="black"/>
<path d="M93.1548 42.2624C86.4265 42.2624 80.9524 36.7883 80.9524 30.0601V12.203C80.9524 5.47478 86.4265 0.000694768 93.1548 0.000694768C99.883 0.000694768 105.357 5.47478 105.357 12.203V30.0601C105.357 36.7886 99.883 42.2624 93.1548 42.2624ZM93.1548 6.54828C90.0366 6.54828 87.5 9.08488 87.5 12.203V30.0601C87.5 33.1782 90.0366 35.7148 93.1548 35.7148C96.2729 35.7148 98.8095 33.1782 98.8095 30.0601V12.203C98.8095 9.08518 96.2726 6.54828 93.1548 6.54828Z" fill="black"/>
<path d="M115.476 42.2624C113.668 42.2624 112.202 40.7966 112.202 38.9886V3.27449C112.202 1.46646 113.668 0.000694768 115.476 0.000694768C117.284 0.000694768 118.75 1.46646 118.75 3.27449V38.9886C118.75 40.7966 117.284 42.2624 115.476 42.2624Z" fill="black"/>
<path d="M146.725 42.2627C145.507 42.2627 144.362 41.58 143.798 40.4526L132.143 17.1423V38.9883C132.143 40.7963 130.677 42.2621 128.869 42.2621C127.061 42.2621 125.595 40.7963 125.595 38.9883V3.27419C125.595 1.75575 126.639 0.436705 128.117 0.0878967C129.595 -0.260911 131.118 0.451883 131.797 1.80991L143.452 25.1202V3.27449C143.452 1.46646 144.918 0.000694768 146.726 0.000694768C148.534 0.000694768 150 1.46646 150 3.27449V38.9886C150 40.5071 148.956 41.8261 147.478 42.1749C147.227 42.2341 146.975 42.2627 146.725 42.2627Z" fill="black"/>
<path d="M21.6616 40.3312C20.7932 40.3312 19.9607 39.9862 19.3467 39.3722L3.56309 23.5887C1.26548 21.2911 0 18.2268 0 14.9604C0 11.6941 1.26548 8.62982 3.56339 6.33221C8.32113 1.5745 16.0622 1.57479 20.8199 6.33221L21.6616 7.17388L22.5033 6.33221C27.261 1.5742 35.0024 1.5745 39.7601 6.33221C44.5179 11.0899 44.5179 18.8313 39.7601 23.5887L23.9765 39.3722C23.3625 39.9862 22.5298 40.3312 21.6616 40.3312ZM12.1914 9.33458C10.7387 9.33369 9.28274 9.87208 8.19286 10.962C6.04464 13.1102 6.05506 16.8212 8.19256 18.9589L21.6613 32.4276L35.1301 18.9589C37.3348 16.7542 37.3348 13.1667 35.1301 10.962C32.9253 8.7572 29.3378 8.7572 27.133 10.962L23.9765 14.1185C23.3625 14.7325 22.5298 15.0774 21.6616 15.0774C20.7932 15.0774 19.9607 14.7325 19.3467 14.1185L16.1902 10.9617C15.1101 9.8819 13.6521 9.33547 12.1914 9.33458Z" fill="#FF914D"/>
<path d="M66.0714 78.5718H57.1429C55.3348 78.5718 53.869 77.106 53.869 75.298C53.869 73.4899 55.3348 72.0242 57.1429 72.0242H66.0714C67.8795 72.0242 69.3452 73.4899 69.3452 75.298C69.3452 77.106 67.8795 78.5718 66.0714 78.5718Z" fill="black"/>
<path d="M128.571 78.5718H119.643C117.835 78.5718 116.369 77.106 116.369 75.298C116.369 73.4899 117.835 72.0242 119.643 72.0242H128.571C130.379 72.0242 131.845 73.4899 131.845 75.298C131.845 77.106 130.379 78.5718 128.571 78.5718Z" fill="black"/>
<path d="M70.9125 63.2084C70.264 63.2084 69.6092 63.0162 69.0378 62.6162L61.7238 57.4951C60.2426 56.4579 59.8827 54.4168 60.9196 52.9356C61.9565 51.4546 63.9979 51.0945 65.4792 52.1317L72.7932 57.2528C74.2744 58.29 74.6342 60.3314 73.5973 61.8123C72.9604 62.7218 71.9446 63.2084 70.9125 63.2084Z" fill="black"/>
<path d="M114.801 63.2084C113.769 63.2084 112.754 62.7218 112.117 61.812C111.08 60.3311 111.44 58.2897 112.921 57.2525L120.234 52.1314C121.715 51.0942 123.757 51.4543 124.794 52.9353C125.831 54.4162 125.471 56.4576 123.99 57.4948L116.676 62.6159C116.105 63.0165 115.45 63.2084 114.801 63.2084Z" fill="black"/>
</svg>
