<svg width="150" height="132" viewBox="0 0 150 132" fill="none" xmlns="http://www.w3.org/2000/svg">
<path d="M50.6222 66.4765C50.6222 57.6812 43.4475 50.5259 34.6286 50.5259C25.8112 50.5259 18.6379 57.6812 18.6379 66.4765C18.6379 75.2718 25.8112 82.4271 34.6286 82.4271C43.4475 82.4271 50.6222 75.2716 50.6222 66.4765ZM24.4975 66.4765C24.4975 60.9043 29.0424 56.3707 34.6286 56.3707C40.2166 56.3707 44.7627 60.9043 44.7627 66.4765C44.7627 72.0487 40.2166 76.5823 34.6286 76.5823C29.0424 76.5823 24.4975 72.0487 24.4975 66.4765Z" fill="black"/>
<path d="M37.658 103.389C41.2446 103.389 44.4208 100.98 45.3841 97.5238L46.2454 94.4079C46.295 94.2285 46.4212 94.0794 46.5815 94.0102C48.6892 93.0987 50.6961 91.9402 52.5427 90.5702C52.6877 90.4632 52.8831 90.4276 53.0692 90.4761L56.2146 91.2888C59.6904 92.1837 63.3705 90.6459 65.1659 87.5466L68.1882 82.3199C69.9833 79.2209 69.4806 75.2719 66.9624 72.7141L64.6848 70.4069C64.5512 70.2698 64.4865 70.0904 64.5073 69.9109C64.7698 67.6323 64.7695 65.3183 64.507 63.0394C64.4865 62.8629 64.5506 62.6847 64.6842 62.5493L66.9654 60.236C69.4806 57.6815 69.9833 53.7324 68.1891 50.6346L65.1644 45.4046C63.3699 42.3068 59.6899 40.7688 56.2122 41.6645L53.0657 42.4775C52.8822 42.5246 52.6868 42.4898 52.5459 42.3855C50.6955 41.0125 48.6886 39.854 46.5824 38.9431C46.4206 38.8733 46.2947 38.7242 46.2449 38.5442L45.382 35.4228C44.4205 31.9726 41.244 29.563 37.6577 29.563H31.6048C28.0138 29.563 24.837 31.974 23.8796 35.4266L23.015 38.5457C22.9655 38.7242 22.8404 38.8724 22.6784 38.9423C20.5739 39.8523 18.5667 41.0102 16.7099 42.3855C16.5689 42.4901 16.3762 42.5243 16.1907 42.4766L13.0453 41.6639C9.57147 40.7691 5.89197 42.3074 4.09749 45.4052L1.07309 50.6302C-0.727255 53.73 -0.223041 57.6812 2.29861 60.2374L4.57211 62.5432C4.70747 62.6811 4.77339 62.862 4.75229 63.0421C4.48949 65.3221 4.49066 67.6367 4.75259 69.9168C4.7728 70.0904 4.70688 70.273 4.57504 70.4066L2.2989 72.715C-0.223041 75.2721 -0.727254 79.223 1.07074 82.3187L4.09778 87.5481C5.89197 90.6456 9.57206 92.184 13.0471 91.2879L16.193 90.4752C16.3756 90.4282 16.5692 90.4621 16.7125 90.5684C18.5667 91.942 20.5742 93.0998 22.6801 94.0105C22.8424 94.0806 22.9643 94.2253 23.0156 94.4108L23.8799 97.5259C24.8373 100.978 28.0138 103.389 31.6051 103.389H37.658V103.389ZM29.5273 95.9676L28.6639 92.8555C28.1398 90.958 26.8073 89.424 25.0096 88.6478C23.3165 87.9155 21.7004 86.9832 20.208 85.8776C18.6444 84.7171 16.6067 84.3293 14.7217 84.8177L11.5798 85.6292C10.6441 85.8724 9.65409 85.4571 9.17185 84.6248L6.14335 79.3928C5.66111 78.5622 5.79793 77.5017 6.47646 76.8137L8.75172 74.5062C10.1355 73.1046 10.7993 71.1866 10.5737 69.2476C10.3628 67.412 10.3619 65.5475 10.5735 63.7119C10.7985 61.7726 10.136 59.8552 8.75319 58.4483L6.47617 56.139C5.79793 55.4514 5.66111 54.3911 6.14569 53.557L9.17185 48.3294C9.65438 47.4959 10.6441 47.0818 11.5784 47.3235L14.7191 48.1348C16.6322 48.6319 18.633 48.2452 20.2062 47.0771C21.7007 45.9704 23.3168 45.0379 25.0084 44.3064C26.8067 43.5302 28.1389 41.9979 28.6636 40.1033L29.5279 36.9854C29.7854 36.0569 30.6397 35.4084 31.6057 35.4084H37.6586C38.6234 35.4084 39.478 36.0584 39.7358 36.9831L40.5968 40.0975C41.1204 41.9927 42.4517 43.5261 44.2511 44.3055C45.946 45.0384 47.5603 45.9704 49.053 47.0777C50.6307 48.2449 52.6312 48.6298 54.539 48.1353L57.6809 47.3238C58.6184 47.0818 59.6096 47.4959 60.0912 48.3276L63.1156 53.5576C63.5985 54.3911 63.4628 55.4534 62.7872 56.1393L60.5087 58.4501C59.1256 59.8517 58.4617 61.7693 58.687 63.7096C58.8982 65.5437 58.8985 67.4073 58.6873 69.2414C58.462 71.1816 59.1247 73.099 60.5052 74.5027C60.5064 74.5041 60.5079 74.5056 60.509 74.5068L62.7855 76.8126C63.4625 77.5005 63.5982 78.5628 63.1145 79.398L60.0921 84.6248C59.6093 85.458 58.6181 85.8721 57.6824 85.6304L54.5411 84.8188C52.6309 84.3247 50.6307 84.7087 49.0495 85.8782C47.56 86.9832 45.9454 87.9155 44.2494 88.6487C42.4514 89.4272 41.1198 90.9609 40.5966 92.8555L39.7367 95.9653C39.4774 96.8958 38.6225 97.5454 37.6577 97.5454H31.6048C30.6391 97.5446 29.7848 96.8961 29.5273 95.9676Z" fill="#4F8FFF"/>
<path d="M141.504 84.9401V37.3063C141.504 32.7032 137.75 28.9584 133.135 28.9584H91.8485C87.2338 28.9584 83.4796 32.7032 83.4796 37.3063V53.1949C83.4796 54.8087 84.7915 56.1174 86.4094 56.1174C88.0272 56.1174 89.3391 54.8087 89.3391 53.1949V37.3063C89.3391 35.926 90.465 34.8032 91.8485 34.8032H133.135C134.519 34.8032 135.644 35.9263 135.644 37.3063V82.0861C133.468 81.4426 131.179 81.1717 128.913 81.285C120.025 81.724 112.277 88.2355 110.336 96.8993H91.8485C90.4647 96.8993 89.3391 95.7762 89.3391 94.3962V78.9033C89.3391 77.2895 88.0272 75.9808 86.4094 75.9808C84.7915 75.9808 83.4796 77.2895 83.4796 78.9033V94.3962C83.4796 98.9993 87.2338 102.744 91.8485 102.744H109.913C110.667 113.104 119.352 121.305 129.927 121.305C140.995 121.305 150 112.323 150 101.282C150 94.54 146.639 88.5701 141.504 84.9401ZM129.927 115.459C122.09 115.459 115.714 109.099 115.714 101.282C115.714 93.5318 122.308 87.0305 130.078 87.1077C137.757 87.1892 144.14 93.6221 144.14 101.282C144.141 109.099 137.765 115.459 129.927 115.459Z" fill="black"/>
<path d="M101.073 52.45H124.218C125.836 52.45 127.148 51.1413 127.148 49.5276C127.148 47.9138 125.836 46.6052 124.218 46.6052H101.073C99.4553 46.6052 98.1434 47.9138 98.1434 49.5276C98.1434 51.1413 99.455 52.45 101.073 52.45Z" fill="black"/>
<path d="M101.073 68.7542H124.218C125.836 68.7542 127.148 67.4456 127.148 65.8318C127.148 64.2181 125.836 62.9094 124.218 62.9094H101.073C99.4553 62.9094 98.1434 64.2181 98.1434 65.8318C98.1434 67.4456 99.455 68.7542 101.073 68.7542Z" fill="black"/>
<path d="M101.073 85.643H108.796C110.414 85.643 111.726 84.3343 111.726 82.7205C111.726 81.1068 110.414 79.7981 108.796 79.7981H101.073C99.4553 79.7981 98.1434 81.1068 98.1434 82.7205C98.1434 84.3343 99.455 85.643 101.073 85.643Z" fill="black"/>
<path d="M133.519 96.3136L127.605 102.214L125.768 100.382C124.624 99.2407 122.768 99.2407 121.624 100.382C120.48 101.523 120.48 103.373 121.624 104.515L125.533 108.413C126.105 108.984 126.855 109.269 127.604 109.269C128.354 109.269 129.104 108.984 129.676 108.413L137.662 100.447C138.807 99.3053 138.807 97.4549 137.662 96.3133C136.518 95.1727 134.664 95.1727 133.519 96.3136Z" fill="#4F8FFF"/>
<path d="M104.852 115.685C94.8149 122.534 83.0559 126.155 70.8464 126.155C59.6576 126.155 48.9845 123.168 39.5998 117.465L43.918 116.779C45.5159 116.525 46.6052 115.027 46.3506 113.434C46.0963 111.839 44.5942 110.757 42.9966 111.007L31.5105 112.831C29.8053 113.102 28.7046 114.842 29.1414 116.497L31.4349 127.433C31.7615 128.99 33.3401 130.022 34.9023 129.695C36.4861 129.365 37.5015 127.816 37.1702 126.236L36.3522 122.336C46.7007 128.677 58.4872 132 70.8461 132C84.2413 132 97.1443 128.026 108.161 120.508C109.496 119.597 109.838 117.778 108.924 116.447C108.011 115.114 106.188 114.773 104.852 115.685Z" fill="black"/>
<path d="M30.6869 20.1998C31.3423 20.1998 32.0018 19.9815 32.5473 19.5338C43.2969 10.7063 56.8987 5.84486 70.8467 5.84486C82.4928 5.84486 93.8964 9.23663 103.601 15.4938L99.0627 16.2142C97.4648 16.4679 96.3753 17.9656 96.6296 19.5595C96.8804 21.1324 98.4074 22.235 99.9833 21.9866L111.468 20.1636C113.094 19.9047 114.216 18.29 113.876 16.6792L111.545 5.56051C111.214 3.98093 109.663 2.96743 108.078 3.29825C106.494 3.62849 105.478 5.17708 105.81 6.75695L106.586 10.4608C95.9806 3.67612 83.5452 0 70.847 0C55.5439 0 40.6197 5.3346 28.8236 15.021C27.5743 16.0471 27.3953 17.8885 28.4237 19.1346C29.0026 19.8369 29.8414 20.1998 30.6869 20.1998Z" fill="black"/>
<path d="M84.783 68.6124C86.9873 70.1191 89.9337 67.9338 89.2303 65.4057C88.5128 62.8267 84.8205 62.5388 83.7339 65.0018C83.1708 66.278 83.6029 67.8429 84.783 68.6124Z" fill="black"/>
</svg>
